<?xml version="1.0" encoding="UTF-8"?>
<svg version="1.1" xmlns="http://www.w3.org/2000/svg" width="1536" height="1024">
<path d="M0 0 C1.97371784 -0.00115354 3.94743547 -0.00274264 5.92115265 -0.00472724 C11.32221549 -0.00888909 16.72326059 -0.00684403 22.12432349 -0.00374103 C27.9590788 -0.00147407 33.79383111 -0.00497317 39.62858582 -0.00772095 C51.0547902 -0.01216516 62.480988 -0.01120774 73.90719264 -0.00830831 C83.20490411 -0.00604711 92.50261373 -0.00574487 101.80032539 -0.00683212 C102.4621247 -0.00690851 103.12392401 -0.00698489 103.80577784 -0.00706359 C106.49275779 -0.00737497 109.17973773 -0.00769337 111.86671767 -0.00802336 C137.06653517 -0.01108111 162.26634909 -0.00831196 187.46616604 -0.00292646 C209.79662421 0.00180963 232.12707667 0.00140224 254.45753479 -0.00338745 C279.58705628 -0.00875958 304.7165746 -0.01085489 329.84609658 -0.00777519 C332.53331347 -0.00745452 335.22053037 -0.00714167 337.90774727 -0.00683212 C338.90012043 -0.00671351 338.90012043 -0.00671351 339.91254154 -0.00659249 C349.84597622 -0.00546129 359.77940858 -0.00678011 369.71284294 -0.00931168 C381.03581731 -0.01213399 392.35878475 -0.01132095 403.68175834 -0.00603093 C409.4473219 -0.00342511 415.21287398 -0.00233499 420.97843742 -0.00568008 C460.6538742 -0.02650837 460.6538742 -0.02650837 478.06997681 0.5100708 C479.69843494 0.55560602 479.69843494 0.55560602 481.35979122 0.60206115 C489.16084518 0.89417211 496.78451021 1.90654207 504.49147034 3.12698364 C505.15147034 2.13698364 505.81147034 1.14698364 506.49147034 0.12698364 C506.82147034 1.77698364 507.15147034 3.42698364 507.49147034 5.12698364 C508.20045471 5.24815552 508.90943909 5.36932739 509.63990784 5.49417114 C528.39268015 9.65574527 546.82108609 24.41562743 557.49147034 40.12698364 C572.16841209 63.71405212 574.97856838 89.12088556 574.86569214 116.42579651 C574.86844129 118.47174681 574.87250062 120.51769568 574.87773579 122.56364113 C574.88820579 128.11741063 574.88027064 133.67101643 574.8689853 139.22477853 C574.8600708 145.2404199 574.86860741 151.25604149 574.87484741 157.27168274 C574.88375009 168.35014909 574.8792092 179.42856913 574.86768359 190.5070293 C574.85711033 200.74072938 574.85261283 210.97441104 574.85397911 221.20811653 C574.85410516 222.22986578 574.85410516 222.22986578 574.85423375 223.27225643 C574.85458604 226.03787086 574.85497007 228.80348528 574.85539933 231.5690997 C574.85935538 257.4578067 574.84668748 283.34648115 574.82587276 309.23517885 C574.80749175 332.20489997 574.80169501 355.17458994 574.80714417 378.14431763 C574.8074906 379.62039323 574.8078367 381.09646884 574.80818246 382.57254445 C574.80843895 383.66719581 574.80843895 383.66719581 574.80870062 384.78396135 C574.80955425 388.45799926 574.81037803 392.13203717 574.81116962 395.8060751 C574.8113267 396.53100914 574.81148379 397.25594319 574.81164563 398.00284494 C574.81563963 417.23793947 574.8101551 436.47303102 574.80165833 455.70812374 C574.80075136 457.778763 574.79984571 459.84940225 574.7989431 461.9200415 C574.798342 463.29344904 574.79773338 464.66685657 574.79711719 466.04026409 C574.79290512 475.59267443 574.79231363 485.14507887 574.79422269 494.69748983 C574.79667041 507.0055477 574.79234118 519.3135796 574.77701268 531.62163018 C574.76978589 537.5516099 574.76567709 543.48154616 574.77025604 549.41152954 C574.77435038 554.84616309 574.76911627 560.28070713 574.75662997 565.71532715 C574.75371684 567.67454453 574.75411315 569.63377043 574.75827304 571.59298556 C574.82045608 603.82117205 568.47613679 632.14498829 545.86647034 656.25198364 C529.60748915 671.90691599 508.06138824 680.73387664 485.59303284 681.95120239 C483.29970464 682.05976519 483.29970464 682.05976519 480.49147034 683.12698364 C478.98382121 683.19666125 477.47322498 683.21145858 475.96412659 683.18948364 C475.08949768 683.18174927 474.21486877 683.17401489 473.31373596 683.16604614 C471.47779768 683.14005975 469.64186017 683.11401832 467.80592346 683.08792114 C466.93000549 683.08018677 466.05408752 683.07245239 465.15162659 683.06448364 C464.35377747 683.05288208 463.55592834 683.04128052 462.73390198 683.02932739 C460.51777476 683.1258381 458.61634989 683.51007333 456.49147034 684.12698364 C456.49147034 683.46698364 456.49147034 682.80698364 456.49147034 682.12698364 C455.56334534 682.29198364 454.63522034 682.45698364 453.67897034 682.62698364 C449.13496602 683.33976863 444.87743329 682.96265065 440.30397034 682.62698364 C439.03166565 682.53417114 437.75936096 682.44135864 436.44850159 682.34573364 C435.47268127 682.27354614 434.49686096 682.20135864 433.49147034 682.12698364 C433.16147034 682.78698364 432.83147034 683.44698364 432.49147034 684.12698364 C432.49147034 683.46698364 432.49147034 682.80698364 432.49147034 682.12698364 C431.43959534 682.29198364 430.38772034 682.45698364 429.30397034 682.62698364 C424.31520043 683.27069589 419.36811719 683.15866752 414.34693909 683.06448364 C411.41614765 682.98798431 411.41614765 682.98798431 408.49147034 684.12698364 C408.49147034 683.46698364 408.49147034 682.80698364 408.49147034 682.12698364 C404.86614968 682.26546003 401.2413113 682.41401007 397.61647034 682.56448364 C396.58393127 682.60380005 395.55139221 682.64311646 394.48756409 682.68362427 C393.50143127 682.7255188 392.51529846 682.76741333 391.49928284 682.81057739 C390.13247375 682.86556396 390.13247375 682.86556396 388.73805237 682.92166138 C386.45663553 682.99275429 386.45663553 682.99275429 384.49147034 684.12698364 C384.49147034 683.46698364 384.49147034 682.80698364 384.49147034 682.12698364 C376.90147034 682.12698364 369.31147034 682.12698364 361.49147034 682.12698364 C361.16147034 682.78698364 360.83147034 683.44698364 360.49147034 684.12698364 C360.49147034 683.46698364 360.49147034 682.80698364 360.49147034 682.12698364 C358.18147034 682.12698364 355.87147034 682.12698364 353.49147034 682.12698364 C353.16147034 682.78698364 352.83147034 683.44698364 352.49147034 684.12698364 C352.49147034 683.46698364 352.49147034 682.80698364 352.49147034 682.12698364 C350.18147034 682.12698364 347.87147034 682.12698364 345.49147034 682.12698364 C345.16147034 682.78698364 344.83147034 683.44698364 344.49147034 684.12698364 C344.49147034 683.46698364 344.49147034 682.80698364 344.49147034 682.12698364 C339.90789658 682.26581218 335.32468337 682.41425112 330.74147034 682.56448364 C329.43951721 682.60380005 328.13756409 682.64311646 326.79615784 682.68362427 C325.54576721 682.7255188 324.29537659 682.76741333 323.00709534 682.81057739 C321.27894592 682.86556396 321.27894592 682.86556396 319.5158844 682.92166138 C317.0140681 683.09150538 314.88055865 683.40666839 312.49147034 684.12698364 C312.49147034 683.46698364 312.49147034 682.80698364 312.49147034 682.12698364 C311.91397034 682.45698364 311.33647034 682.78698364 310.74147034 683.12698364 C308.49147034 684.12698364 308.49147034 684.12698364 304.49147034 684.12698364 C304.49147034 683.46698364 304.49147034 682.80698364 304.49147034 682.12698364 C303.95522034 682.45698364 303.41897034 682.78698364 302.86647034 683.12698364 C299.94490191 684.35711772 297.63266763 684.26659241 294.49147034 684.12698364 C294.16147034 684.12698364 293.83147034 684.12698364 293.49147034 684.12698364 C292.50147034 683.79698364 291.51147034 683.46698364 290.49147034 683.12698364 C287.504179 683.04144851 284.54083045 683.01119208 281.55397034 683.02932739 C280.6774884 683.03074234 279.80100647 683.03215729 278.89796448 683.03361511 C276.09576507 683.0392124 273.29364555 683.05175522 270.49147034 683.06448364 C268.60345067 683.06949981 266.71542973 683.07406251 264.82740784 683.07815552 C261.37036029 683.08633034 257.91334251 683.09700661 254.45631409 683.1111145 C252.13471207 683.12040663 249.81309095 683.12698364 247.49147034 683.12698364 C245.15582101 683.44368186 242.82209214 683.77519167 240.49147034 684.12698364 C240.49147034 683.46698364 240.49147034 682.80698364 240.49147034 682.12698364 C238.18147034 682.12698364 235.87147034 682.12698364 233.49147034 682.12698364 C233.16147034 682.78698364 232.83147034 683.44698364 232.49147034 684.12698364 C232.49147034 683.46698364 232.49147034 682.80698364 232.49147034 682.12698364 C230.18147034 682.12698364 227.87147034 682.12698364 225.49147034 682.12698364 C225.16147034 682.78698364 224.83147034 683.44698364 224.49147034 684.12698364 C223.83147034 683.79698364 223.17147034 683.46698364 222.49147034 683.12698364 C221.54272034 683.29198364 220.59397034 683.45698364 219.61647034 683.62698364 C216.60413289 684.10895763 215.30497498 684.03456579 212.49147034 683.12698364 C210.82627515 682.78637554 209.15989568 682.45139968 207.49147034 682.12698364 C207.49147034 682.78698364 207.49147034 683.44698364 207.49147034 684.12698364 C206.58397034 683.96198364 205.67647034 683.79698364 204.74147034 683.62698364 C200.21722301 682.95947174 195.72551931 683.09685067 191.16334534 683.18948364 C188.49147034 683.12698364 188.49147034 683.12698364 185.49147034 682.12698364 C185.16147034 682.78698364 184.83147034 683.44698364 184.49147034 684.12698364 C184.49147034 683.46698364 184.49147034 682.80698364 184.49147034 682.12698364 C179.54147034 682.12698364 174.59147034 682.12698364 169.49147034 682.12698364 C169.16147034 682.78698364 168.83147034 683.44698364 168.49147034 684.12698364 C168.16147034 683.79698364 167.83147034 683.46698364 167.49147034 683.12698364 C165.2745904 682.96824409 163.05291736 682.87564527 160.83131409 682.81057739 C160.16684769 682.7897963 159.50238129 682.7690152 158.81777954 682.74760437 C156.6882849 682.68204706 154.55866365 682.62319579 152.42897034 682.56448364 C150.98820186 682.52130425 149.54744635 682.47769016 148.10670471 682.43362427 C144.56842993 682.32635971 141.03001165 682.22510993 137.49147034 682.12698364 C137.49147034 682.78698364 137.49147034 683.44698364 137.49147034 684.12698364 C136.78248596 683.96456177 136.07350159 683.80213989 135.34303284 683.63479614 C132.45429414 683.12036322 129.79769281 682.99390865 126.86647034 683.00198364 C125.92545471 682.99940552 124.98443909 682.99682739 124.01490784 682.99417114 C121.36469527 683.02150367 121.36469527 683.02150367 118.49147034 684.12698364 C117.83147034 683.79698364 117.17147034 683.46698364 116.49147034 683.12698364 C114.48224774 683.12698364 112.47245126 683.1294216 110.46412659 683.18948364 C108.49147034 683.12698364 108.49147034 683.12698364 105.49147034 682.12698364 C105.16147034 682.78698364 104.83147034 683.44698364 104.49147034 684.12698364 C104.49147034 683.46698364 104.49147034 682.80698364 104.49147034 682.12698364 C101.52147034 682.12698364 98.55147034 682.12698364 95.49147034 682.12698364 C95.16147034 682.78698364 94.83147034 683.44698364 94.49147034 684.12698364 C94.49147034 683.46698364 94.49147034 682.80698364 94.49147034 682.12698364 C92.53276604 682.2677468 90.57450941 682.41475124 88.61647034 682.56448364 C87.52592346 682.64569458 86.43537659 682.72690552 85.31178284 682.81057739 C82.54418063 682.95700068 82.54418063 682.95700068 80.49147034 684.12698364 C80.49147034 683.46698364 80.49147034 682.80698364 80.49147034 682.12698364 C78.18147034 682.12698364 75.87147034 682.12698364 73.49147034 682.12698364 C73.16147034 682.78698364 72.83147034 683.44698364 72.49147034 684.12698364 C72.49147034 683.46698364 72.49147034 682.80698364 72.49147034 682.12698364 C67.54147034 682.12698364 62.59147034 682.12698364 57.49147034 682.12698364 C57.16147034 682.78698364 56.83147034 683.44698364 56.49147034 684.12698364 C56.49147034 683.46698364 56.49147034 682.80698364 56.49147034 682.12698364 C55.41897034 682.29198364 54.34647034 682.45698364 53.24147034 682.62698364 C49.49147034 683.12698364 49.49147034 683.12698364 45.49147034 683.12698364 C44.74768127 683.13858521 44.00389221 683.15018677 43.23756409 683.16213989 C42.09481018 683.17567505 42.09481018 683.17567505 40.92897034 683.18948364 C40.16455627 683.20108521 39.40014221 683.21268677 38.61256409 683.22463989 C36.49147034 683.12698364 36.49147034 683.12698364 33.49147034 682.12698364 C33.49147034 682.78698364 33.49147034 683.44698364 33.49147034 684.12698364 C32.50147034 683.79698364 31.51147034 683.46698364 30.49147034 683.12698364 C28.73643045 683.02591355 26.97789246 682.98130593 25.21998596 682.9692688 C24.14035583 682.95900665 23.06072571 682.94874451 21.94837952 682.93817139 C20.19080322 682.92721939 20.19080322 682.92721939 18.39772034 682.91604614 C15.89641222 682.88793201 13.39511024 682.85926738 10.89381409 682.83010864 C6.96689836 682.78920834 3.0400916 682.75231419 -0.88694763 682.72561646 C-21.60963071 682.5726426 -42.03837122 681.99292766 -61.50852966 674.12698364 C-61.83852966 673.46698364 -62.16852966 672.80698364 -62.50852966 672.12698364 C-64.16886239 671.44469524 -65.83689772 670.78110049 -67.50852966 670.12698364 C-89.3420701 657.48317721 -103.72623877 638.29375182 -110.78196716 613.96682739 C-112.08616147 608.86925073 -112.61215437 604.41184347 -112.50852966 599.12698364 C-113.16852966 598.79698364 -113.82852966 598.46698364 -114.50852966 598.12698364 C-114.5027742 596.97530701 -114.49701874 595.82363037 -114.49108887 594.63705444 C-114.46319708 586.49281496 -114.48884468 578.35705724 -114.7250824 570.21585083 C-115.86844202 530.03020025 -115.62534534 489.83111336 -115.58055627 449.63332319 C-115.56918482 439.24041598 -115.56383002 428.84750797 -115.55885327 418.45459604 C-115.5489478 398.01796873 -115.53257775 377.58135191 -115.51132298 357.14473343 C-115.50781118 353.35076715 -115.51869919 349.55757316 -115.54368591 345.76370239 C-115.62596493 328.1919893 -115.20632358 310.68318164 -114.50852966 293.12698364 C-115.16852966 292.79698364 -115.82852966 292.46698364 -116.50852966 292.12698364 C-115.84852966 292.12698364 -115.18852966 292.12698364 -114.50852966 292.12698364 C-114.53816803 291.20060089 -114.5678064 290.27421814 -114.5983429 289.31976318 C-115.74423535 252.30654716 -115.66309977 215.28996467 -115.63709807 178.26357865 C-115.63271792 171.27945298 -115.63588911 164.2953451 -115.64072716 157.31122053 C-115.64525363 150.5010145 -115.64591391 143.6908162 -115.64328849 136.88060915 C-115.6417349 132.844722 -115.64150862 128.80884702 -115.64482498 124.77296066 C-115.64769989 121.01813017 -115.64573529 117.26333358 -115.63993073 113.50850677 C-115.63860505 112.13218619 -115.63899401 110.75586277 -115.64119339 109.3795433 C-115.64390998 107.50836029 -115.6399056 105.63717104 -115.63551331 103.76599121 C-115.63513628 102.71883123 -115.63475925 101.67167126 -115.6343708 100.59277916 C-115.50852966 98.12698364 -115.50852966 98.12698364 -114.50852966 96.12698364 C-114.31495307 93.9871207 -114.12604235 91.84669458 -113.96507263 89.70413208 C-112.18071006 66.8997253 -104.37989795 47.53856907 -89.50852966 30.12698364 C-88.66741638 29.13311646 -88.66741638 29.13311646 -87.80931091 28.11917114 C-77.34823132 16.78853078 -62.21435895 8.37533432 -47.50852966 4.12698364 C-46.18852966 4.12698364 -44.86852966 4.12698364 -43.50852966 4.12698364 C-43.17852966 3.13698364 -42.84852966 2.14698364 -42.50852966 1.12698364 C-42.50852966 1.78698364 -42.50852966 2.44698364 -42.50852966 3.12698364 C-41.85368591 2.99421021 -41.19884216 2.86143677 -40.52415466 2.72463989 C-39.61149841 2.54803833 -38.69884216 2.37143677 -37.75852966 2.18948364 C-36.87681091 2.01546021 -35.99509216 1.84143677 -35.08665466 1.66213989 C-23.42095782 -0.08262044 -11.76255366 -0.01500892 0 0 Z M44.49147034 172.12698364 C44.39446033 173.70646881 44.36775396 175.29031183 44.36842251 176.87277317 C44.36643146 177.90584931 44.36444041 178.93892545 44.36238903 180.00330693 C44.36530187 181.15211478 44.36821471 182.30092263 44.37121582 183.48454285 C44.3703614 184.69412877 44.36950697 185.90371469 44.36862665 187.14995474 C44.36725844 190.52258264 44.37040603 193.89515322 44.37540472 197.26777422 C44.37970581 200.89901076 44.37826304 204.5302454 44.37750244 208.16148376 C44.37697699 214.45789577 44.380126 220.75429745 44.38574028 227.05070686 C44.39385241 236.15436206 44.3964702 245.25801224 44.39772827 254.36167067 C44.39991924 269.13020556 44.40658055 283.89873494 44.41603088 298.66726685 C44.42520383 313.01720146 44.43227378 327.36713458 44.4365387 341.71707153 C44.43694069 343.05644088 44.43694069 343.05644088 44.43735081 344.42286819 C44.43943012 351.40558415 44.44138708 358.38830014 44.44330537 365.37101614 C44.45274644 399.62301037 44.47286299 433.8749908 44.49147034 468.12698364 C97.29147034 468.12698364 150.09147034 468.12698364 204.49147034 468.12698364 C204.49147034 450.63698364 204.49147034 433.14698364 204.49147034 415.12698364 C169.18147034 415.12698364 133.87147034 415.12698364 97.49147034 415.12698364 C97.49147034 334.93698364 97.49147034 254.74698364 97.49147034 172.12698364 C93.56383135 171.47237715 90.46321354 171.00142348 86.60353088 170.99758911 C85.68625717 170.99443695 84.76898346 170.99128479 83.82391357 170.98803711 C82.85182449 170.99006134 81.87973541 170.99208557 80.87818909 170.99417114 C79.36295403 170.99273605 79.36295403 170.99273605 77.81710815 170.99127197 C75.69155311 170.99059365 73.56599597 170.99242364 71.44044495 170.99661255 C68.17290159 171.00199364 64.90549396 170.99664154 61.63795471 170.99026489 C59.5721992 170.99092519 57.50644377 170.99220534 55.44068909 170.99417114 C53.96737373 170.9911348 53.96737373 170.9911348 52.46429443 170.98803711 C51.11202507 170.99276535 51.11202507 170.99276535 49.73243713 170.99758911 C48.93556992 170.9983847 48.1387027 170.9991803 47.31768799 171 C45.4720773 170.92759193 45.4720773 170.92759193 44.49147034 172.12698364 Z M230.49147034 171.12698364 C230.49147034 269.13698364 230.49147034 367.14698364 230.49147034 468.12698364 C247.98147034 468.12698364 265.47147034 468.12698364 283.49147034 468.12698364 C283.82147034 427.86698364 284.15147034 387.60698364 284.49147034 346.12698364 C341.36647034 346.18948364 341.36647034 346.18948364 359.34645081 346.21707153 C364.65005464 346.22041529 364.65005464 346.22041529 369.95365906 346.22242737 C372.32190641 346.22396622 374.69015296 346.22748997 377.05839539 346.2325592 C380.63880278 346.23984211 384.21916216 346.24089087 387.79957581 346.24050903 C388.86037291 346.24410714 389.92117001 346.24770525 391.01411247 346.25141239 C392.45405162 346.24934615 392.45405162 346.24934615 393.92308044 346.24723816 C394.76191206 346.24815995 395.60074368 346.24908175 396.46499443 346.25003147 C398.56081764 346.25571898 398.56081764 346.25571898 400.49147034 345.12698364 C400.49147034 328.62698364 400.49147034 312.12698364 400.49147034 295.12698364 C362.21147034 294.79698364 323.93147034 294.46698364 284.49147034 294.12698364 C284.16147034 271.02698364 283.83147034 247.92698364 283.49147034 224.12698364 C327.82480367 224.12698364 372.158137 224.12698364 416.49147034 224.12698364 C416.49147034 206.63698364 416.49147034 189.14698364 416.49147034 171.12698364 C415.83147034 171.45698364 415.17147034 171.78698364 414.49147034 172.12698364 C412.9077066 172.14329788 411.32300652 172.09142971 409.74147034 172.00588989 C408.7527594 171.95738892 407.76404846 171.90888794 406.74537659 171.85891724 C405.13469299 171.77504761 405.13469299 171.77504761 403.49147034 171.68948364 C394.15520417 171.26052742 384.83784906 171.01209002 375.49147034 171.00198364 C374.42541565 170.99755249 373.35936096 170.99312134 372.26100159 170.98855591 C366.93887723 170.99825243 361.79081961 171.19758025 356.52662659 172.01028442 C354.49147034 172.12698364 354.49147034 172.12698364 349.49147034 171.12698364 C310.22147034 171.12698364 270.95147034 171.12698364 230.49147034 171.12698364 Z " fill="#9033FE" transform="translate(538.5085296630859,170.87301635742188)"/>
<path d="M0 0 C3.82818406 1.13810877 7.30135276 2.62321214 10.875 4.375 C22.80145654 9.89711275 36.03794682 12.16447798 49.10730648 12.12304783 C50.4566138 12.1247786 50.4566138 12.1247786 51.83317986 12.12654433 C54.85103972 12.12919374 57.86884636 12.1247026 60.88670349 12.12025452 C63.0706396 12.12069056 65.25457565 12.12156608 67.43851143 12.12284368 C73.44273362 12.12508212 79.44693801 12.12107622 85.45115793 12.11606562 C91.92485134 12.111752 98.39854372 12.1132082 104.87223816 12.1139679 C116.08934698 12.11466538 127.30645036 12.11138672 138.52355766 12.10573006 C150.28778549 12.0998127 162.052011 12.09596404 173.81624031 12.09487724 C174.54775023 12.0948085 175.27926016 12.09473976 176.03293704 12.09466894 C179.74791805 12.09433061 183.46289905 12.09402922 187.17788006 12.09374207 C213.48992617 12.09164175 239.80196926 12.08490465 266.11401367 12.07543945 C291.67553695 12.06625485 317.23705939 12.05917132 342.79858398 12.05493164 C343.98049524 12.05473435 343.98049524 12.05473435 345.18628349 12.05453308 C353.09912131 12.05321455 361.01195913 12.05193874 368.92479696 12.05069422 C385.04410805 12.04815802 401.16341909 12.04533676 417.2827301 12.04234314 C418.02386722 12.04220585 418.76500435 12.04206856 419.52860017 12.04192711 C469.01906806 12.03272671 518.50953419 12.01686074 568 12 C564.73521492 14.17652339 563.32159941 14.32108176 559.5 14.5625 C556.37717143 14.76817016 553.98347164 15.00550945 551 16 C549.49235087 16.0696776 547.98175464 16.08447494 546.47265625 16.0625 C545.59802734 16.05476562 544.72339844 16.04703125 543.82226562 16.0390625 C541.98632734 16.01307611 540.15038984 15.98703468 538.31445312 15.9609375 C537.00057617 15.94933594 537.00057617 15.94933594 535.66015625 15.9375 C534.86230713 15.92589844 534.06445801 15.91429687 533.24243164 15.90234375 C531.02630442 15.99885446 529.12487955 16.38308969 527 17 C527 16.34 527 15.68 527 15 C526.071875 15.165 525.14375 15.33 524.1875 15.5 C519.64349569 16.21278499 515.38596295 15.83566701 510.8125 15.5 C509.54019531 15.4071875 508.26789063 15.314375 506.95703125 15.21875 C505.49330078 15.11046875 505.49330078 15.11046875 504 15 C503.67 15.66 503.34 16.32 503 17 C503 16.34 503 15.68 503 15 C501.948125 15.165 500.89625 15.33 499.8125 15.5 C494.82373009 16.14371225 489.87664685 16.03168388 484.85546875 15.9375 C481.92467731 15.86100067 481.92467731 15.86100067 479 17 C479 16.34 479 15.68 479 15 C475.37467934 15.13847638 471.74984096 15.28702643 468.125 15.4375 C467.09246094 15.47681641 466.05992187 15.51613281 464.99609375 15.55664062 C464.00996094 15.59853516 463.02382813 15.64042969 462.0078125 15.68359375 C461.09660645 15.72025146 460.18540039 15.75690918 459.24658203 15.79467773 C456.96516519 15.86577065 456.96516519 15.86577065 455 17 C455 16.34 455 15.68 455 15 C447.41 15 439.82 15 432 15 C431.67 15.66 431.34 16.32 431 17 C431 16.34 431 15.68 431 15 C428.69 15 426.38 15 424 15 C423.67 15.66 423.34 16.32 423 17 C423 16.34 423 15.68 423 15 C420.69 15 418.38 15 416 15 C415.67 15.66 415.34 16.32 415 17 C415 16.34 415 15.68 415 15 C410.41642624 15.13882854 405.83321304 15.28726748 401.25 15.4375 C399.29707031 15.49647461 399.29707031 15.49647461 397.3046875 15.55664062 C396.05429687 15.59853516 394.80390625 15.64042969 393.515625 15.68359375 C392.36352539 15.72025146 391.21142578 15.75690918 390.02441406 15.79467773 C387.52259776 15.96452174 385.38908832 16.27968475 383 17 C383 16.34 383 15.68 383 15 C382.4225 15.33 381.845 15.66 381.25 16 C379 17 379 17 375 17 C375 16.34 375 15.68 375 15 C374.46375 15.33 373.9275 15.66 373.375 16 C370.45343157 17.23013407 368.14119729 17.13960877 365 17 C364.67 17 364.34 17 364 17 C363.01 16.67 362.02 16.34 361 16 C358.01270866 15.91446487 355.04936011 15.88420843 352.0625 15.90234375 C351.18601807 15.9037587 350.30953613 15.90517365 349.40649414 15.90663147 C346.60429474 15.91222876 343.80217521 15.92477157 341 15.9375 C339.11198033 15.94251616 337.2239594 15.94707887 335.3359375 15.95117188 C331.87888996 15.9593467 328.42187218 15.97002296 324.96484375 15.98413086 C322.64324174 15.99342299 320.32162061 16 318 16 C315.66435067 16.31669821 313.3306218 16.64820803 311 17 C311 16.34 311 15.68 311 15 C308.69 15 306.38 15 304 15 C303.67 15.66 303.34 16.32 303 17 C303 16.34 303 15.68 303 15 C300.69 15 298.38 15 296 15 C295.67 15.66 295.34 16.32 295 17 C294.34 16.67 293.68 16.34 293 16 C292.05125 16.165 291.1025 16.33 290.125 16.5 C287.11266255 16.98197399 285.81350465 16.90758214 283 16 C281.33480481 15.65939189 279.66842534 15.32441604 278 15 C278 15.66 278 16.32 278 17 C277.0925 16.835 276.185 16.67 275.25 16.5 C270.72575267 15.8324881 266.23404897 15.96986703 261.671875 16.0625 C259 16 259 16 256 15 C255.67 15.66 255.34 16.32 255 17 C255 16.34 255 15.68 255 15 C250.05 15 245.1 15 240 15 C239.67 15.66 239.34 16.32 239 17 C238.67 16.67 238.34 16.34 238 16 C235.78312006 15.84126045 233.56144702 15.74866163 231.33984375 15.68359375 C230.67537735 15.66281265 230.01091095 15.64203156 229.3263092 15.62062073 C227.19681457 15.55506342 225.06719332 15.49621215 222.9375 15.4375 C221.49673153 15.39432061 220.05597601 15.35070651 218.61523438 15.30664062 C215.0769596 15.19937607 211.53854131 15.09812629 208 15 C208 15.66 208 16.32 208 17 C207.29101562 16.83757813 206.58203125 16.67515625 205.8515625 16.5078125 C202.9628238 15.99337958 200.30622248 15.86692501 197.375 15.875 C196.43398438 15.87242187 195.49296875 15.86984375 194.5234375 15.8671875 C191.87322493 15.89452002 191.87322493 15.89452002 189 17 C188.34 16.67 187.68 16.34 187 16 C184.9907774 16 182.98098092 16.00243795 180.97265625 16.0625 C179 16 179 16 176 15 C175.67 15.66 175.34 16.32 175 17 C175 16.34 175 15.68 175 15 C172.03 15 169.06 15 166 15 C165.67 15.66 165.34 16.32 165 17 C165 16.34 165 15.68 165 15 C163.0412957 15.14076315 161.08303907 15.2877676 159.125 15.4375 C157.48917969 15.55931641 157.48917969 15.55931641 155.8203125 15.68359375 C153.05271029 15.83001703 153.05271029 15.83001703 151 17 C151 16.34 151 15.68 151 15 C148.69 15 146.38 15 144 15 C143.67 15.66 143.34 16.32 143 17 C143 16.34 143 15.68 143 15 C138.05 15 133.1 15 128 15 C127.67 15.66 127.34 16.32 127 17 C127 16.34 127 15.68 127 15 C125.9275 15.165 124.855 15.33 123.75 15.5 C120 16 120 16 116 16 C115.25621094 16.01160156 114.51242187 16.02320313 113.74609375 16.03515625 C112.60333984 16.04869141 112.60333984 16.04869141 111.4375 16.0625 C110.29087891 16.07990234 110.29087891 16.07990234 109.12109375 16.09765625 C107 16 107 16 104 15 C104 15.66 104 16.32 104 17 C102.515 16.505 102.515 16.505 101 16 C99.24496011 15.8989299 97.48642213 15.85432229 95.72851562 15.84228516 C94.6488855 15.83202301 93.56925537 15.82176086 92.45690918 15.81118774 C90.69933289 15.80023575 90.69933289 15.80023575 88.90625 15.7890625 C86.40494188 15.76094837 83.90363991 15.73228374 81.40234375 15.703125 C77.47542802 15.6622247 73.54862126 15.62533055 69.62158203 15.59863281 C48.89889896 15.44565895 28.47015845 14.86594401 9 7 C8.67 6.34 8.34 5.68 8 5 C7.21625 4.690625 6.4325 4.38125 5.625 4.0625 C3.04017895 3.01626291 1.7953831 2.07886465 0 0 Z " fill="#6E27DA" transform="translate(468,838)"/>
<path d="M0 0 C0.33 0 0.66 0 1 0 C1.00135653 1.06248915 1.00271306 2.1249783 1.00411069 3.2196641 C1.06405115 50.06576272 1.12645094 96.91185725 1.20132446 143.75793457 C1.20245809 144.46764312 1.20359171 145.17735166 1.20475969 145.90856653 C1.22941361 161.33404549 1.2545066 176.75952371 1.28005161 192.18500122 C1.29257699 199.75012438 1.30500539 207.31524769 1.31738281 214.88037109 C1.31861614 215.63317451 1.31984946 216.38597792 1.32112016 217.16159356 C1.36101928 241.54316502 1.39451982 265.92474014 1.42468691 290.30632541 C1.45573258 315.37059388 1.49326405 340.43484452 1.53890612 365.49909086 C1.54535611 369.04274401 1.55173229 372.58639729 1.55806351 376.13005066 C1.55931181 376.82746288 1.56056012 377.52487511 1.56184625 378.24342104 C1.58171605 389.45032594 1.59478933 400.65722886 1.60529328 411.86414602 C1.61601041 423.14268843 1.63411261 434.42120128 1.65916704 445.69972253 C1.67251759 451.80586596 1.68269476 457.91197054 1.68421364 464.01812935 C1.68567715 469.61591987 1.69634867 475.2136169 1.71413441 480.81137866 C1.71895745 482.82914131 1.72049272 484.84691529 1.71827881 486.8646825 C1.69666317 510.44840029 3.60305914 535.77715263 19 555 C18.67 555.66 18.34 556.32 18 557 C8.27003311 544.96323245 -0.07489415 526.76511414 1 511 C0.34 510.67 -0.32 510.34 -1 510 C-0.99424454 508.84832336 -0.98848907 507.69664673 -0.9825592 506.5100708 C-0.95466742 498.36583131 -0.98031502 490.2300736 -1.21655273 482.08886719 C-2.35991236 441.90321661 -2.11681567 401.70412971 -2.07202661 361.50633955 C-2.06065516 351.11343234 -2.05530035 340.72052433 -2.05032361 330.3276124 C-2.04041814 309.89098508 -2.02404809 289.45436827 -2.00279331 269.01774979 C-1.99928151 265.22378351 -2.01016952 261.43058952 -2.03515625 257.63671875 C-2.11743527 240.06500566 -1.69779392 222.55619799 -1 205 C-1.66 204.67 -2.32 204.34 -3 204 C-2.34 204 -1.68 204 -1 204 C-1.02963837 203.07361725 -1.05927673 202.1472345 -1.08981323 201.19277954 C-2.23570569 164.17956352 -2.15457011 127.16298102 -2.12856841 90.13659501 C-2.12418825 83.15246934 -2.12735944 76.16836145 -2.1321975 69.18423688 C-2.13672397 62.37403085 -2.13738424 55.56383256 -2.13475883 48.75362551 C-2.13320523 44.71773836 -2.13297895 40.68186338 -2.13629532 36.64597702 C-2.13917022 32.89114653 -2.13720562 29.13634994 -2.13140106 25.38152313 C-2.13007538 24.00520255 -2.13046434 22.62887913 -2.13266373 21.25255966 C-2.13538032 19.38137664 -2.13137594 17.5101874 -2.12698364 15.63900757 C-2.12660662 14.59184759 -2.12622959 13.54468761 -2.12584114 12.46579552 C-2 10 -2 10 -1 8 C-0.77721336 6.63027471 -0.5931895 5.25396412 -0.4375 3.875 C-0.2209375 1.956875 -0.2209375 1.956875 0 0 Z " fill="#6E21E1" transform="translate(425,259)"/>
<path d="M0 0 C0.66 0 1.32 0 2 0 C2 158.73 2 317.46 2 481 C1.67 481 1.34 481 1 481 C0.04257172 450.86103947 -0.09965727 420.72928035 -0.09765625 390.578125 C-0.09759189 389.60813128 -0.09752753 388.63813755 -0.09746122 387.63875008 C-0.09581095 375.59461209 -0.08544646 363.5504876 -0.07202661 351.50635767 C-0.06065522 341.11344442 -0.05530036 330.72053037 -0.05032361 320.3276124 C-0.04041814 299.89098508 -0.02404809 279.45436827 -0.00279331 259.01774979 C0.00071849 255.22378351 -0.01016952 251.43058952 -0.03515625 247.63671875 C-0.11743527 230.06500566 0.30220608 212.55619799 1 195 C0.34 194.67 -0.32 194.34 -1 194 C-0.34 194 0.32 194 1 194 C0.97003433 193.07427185 0.94006866 192.1485437 0.90919495 191.19476318 C-0.25029006 154.14295067 -0.12124261 117.08846889 -0.07202661 80.02351141 C-0.06061949 71.27304919 -0.0552936 62.52258596 -0.05032361 53.77211809 C-0.04001493 35.84807029 -0.02255594 17.92403638 0 0 Z " fill="#A645F9" transform="translate(423,269)"/>
<path d="M0 0 C0.33 0 0.66 0 1 0 C1.93066843 17.68032844 2.16013264 35.32955979 2.12857056 53.03085709 C2.12494738 55.34612405 2.1233648 57.66138458 2.12231445 59.97665405 C2.09754206 104.80892639 1.69644164 149.64117416 1.35595703 194.47192383 C1.35062824 195.17363626 1.34529945 195.87534869 1.33980918 196.59832513 C1.22969731 211.06557518 1.11425246 225.53278162 1 240 C36.64 240 72.28 240 109 240 C109 258.48 109 276.96 109 296 C108.67 296 108.34 296 108 296 C108 277.85 108 259.7 108 241 C72.36 241 36.72 241 0 241 C-0.58862735 224.51843422 -1.14938576 208.14154236 -1.12939453 191.66821289 C-1.13075661 189.71475696 -1.13254099 187.76130128 -1.13470459 185.80784607 C-1.13917867 180.60631123 -1.13753295 175.40479671 -1.1343255 170.20326161 C-1.13175446 164.71350512 -1.13415192 159.22375011 -1.13571167 153.73399353 C-1.13751744 144.54018854 -1.13516686 135.34639165 -1.13037109 126.15258789 C-1.12490715 115.55608924 -1.12671295 104.95960976 -1.1321975 94.36311156 C-1.13674527 85.20573007 -1.13737176 76.04835433 -1.13475883 66.89097208 C-1.13320833 61.44659418 -1.1329689 56.00222528 -1.13629532 50.55784798 C-1.13919919 45.45138084 -1.13715241 40.34493838 -1.13140106 35.23847389 C-1.13008796 33.37495718 -1.13044269 31.51143837 -1.13266373 29.64792252 C-1.14341101 19.70945915 -0.98077269 9.89943939 0 0 Z " fill="#7824E7" transform="translate(636,344)"/>
<path d="M0 0 C62.7 0 125.4 0 190 0 C190 18.15 190 36.3 190 55 C185.71 55 181.42 55 177 55 C181 52 181 52 185 52 C185 52.66 185 53.32 185 54 C185.99 54 186.98 54 188 54 C187.67 37.17 187.34 20.34 187 3 C173.64014438 2.4127536 160.31076857 1.89822084 146.9375 1.875 C145.34446045 1.86823242 145.34446045 1.86823242 143.71923828 1.86132812 C138.41457545 1.87146281 133.28433898 2.07393544 128.03735352 2.88330078 C126 3 126 3 123.67500019 2.51438904 C121.08915015 2.01714312 118.79058158 1.87934321 116.16264343 1.88647461 C115.21653198 1.8865451 114.27042053 1.8866156 113.29563904 1.88668823 C111.75650597 1.89443771 111.75650597 1.89443771 110.1862793 1.90234375 C109.09624603 1.90380402 108.00621277 1.90526428 106.88314819 1.9067688 C104.51833836 1.91057143 102.15353137 1.91668446 99.78873253 1.92483521 C96.04337876 1.93760515 92.29806045 1.9441164 88.5526886 1.94897461 C79.92266615 1.96137487 71.29267515 1.98302651 62.66267395 2.00520325 C54.12875089 2.02703177 45.59483761 2.04488574 37.06089211 2.05593872 C33.37615825 2.0624088 29.69147642 2.07491843 26.00675964 2.08764648 C23.73847499 2.09128059 21.47018985 2.09463212 19.2019043 2.09765625 C18.18188828 2.10282257 17.16187225 2.10798889 16.11094666 2.11331177 C10.64300957 2.11371558 5.40935298 1.80962327 0 1 C0 0.67 0 0.34 0 0 Z " fill="#7F2DE7" transform="translate(767,341)"/>
<path d="M0 0 C32.01 0 64.02 0 97 0 C97 0.33 97 0.66 97 1 C65.65 1 34.3 1 2 1 C2 23.44 2 45.88 2 69 C40.28 69 78.56 69 118 69 C118 69.33 118 69.66 118 70 C102.76242166 70.15376464 87.5247952 70.30180153 72.28709507 70.4429636 C65.21244464 70.50863767 58.13782167 70.57620719 51.06323242 70.64819336 C44.24225023 70.71759373 37.42123515 70.78177225 30.60017204 70.84269524 C27.9913153 70.86686382 25.38247446 70.89281424 22.77365303 70.92053413 C19.13371395 70.95891261 15.493771 70.99108701 11.85375977 71.02172852 C10.76331863 71.03467453 9.6728775 71.04762054 8.5493927 71.06095886 C7.56356201 71.06799835 6.57773132 71.07503784 5.56202698 71.08229065 C4.26921232 71.09473485 4.26921232 71.09473485 2.95028019 71.10743046 C1 71 1 71 0 70 C-0.09429342 67.82194281 -0.11742538 65.6407872 -0.11352539 63.46069336 C-0.11364593 62.76671983 -0.11376646 62.0727463 -0.11389065 61.35774326 C-0.11314169 59.10174464 -0.10551429 56.84582768 -0.09765625 54.58984375 C-0.09618678 53.20088745 -0.0951661 51.8119306 -0.09460449 50.42297363 C-0.08935224 45.26114067 -0.07539114 40.09931954 -0.0625 34.9375 C-0.041875 23.408125 -0.02125 11.87875 0 0 Z " fill="#711FDF" transform="translate(822,395)"/>
<path d="M0 0 C2.64 0 5.28 0 8 0 C8 42.57 8 85.14 8 129 C7.34 129.33 6.68 129.66 6 130 C6.00333092 128.12556213 6.00333092 128.12556213 6.00672913 126.21325684 C6.02716382 114.33008911 6.04206877 102.44692502 6.05181217 90.56374359 C6.05699001 84.45720171 6.0639928 78.35067423 6.07543945 72.24414062 C6.08645236 66.3307532 6.09231502 60.41737945 6.09487724 54.50398254 C6.09669885 52.26861862 6.10025413 50.03325529 6.10573006 47.79789734 C6.14163768 32.5058677 5.76368579 17.27342524 5 2 C3.35 1.67 1.7 1.34 0 1 C0 0.67 0 0.34 0 0 Z " fill="#A139FE" transform="translate(631,342)"/>
<path d="M0 0 C0.33 0 0.66 0 1 0 C2.15209202 20.44930863 2.12133003 40.86863642 2.06866455 61.34222412 C2.05825913 65.82840492 2.05383084 70.31459175 2.04882812 74.80078125 C2.0382445 83.53387018 2.02127875 92.2669306 2 101 C1.67 100.34 1.34 99.68 1 99 C0.34 98.67 -0.32 98.34 -1 98 C-1.02327335 87.14190025 -1.040991 76.28380654 -1.05181217 65.42568684 C-1.05700841 60.38265915 -1.06404617 55.33964866 -1.07543945 50.29663086 C-1.08638503 45.42071046 -1.09230133 40.54480649 -1.09487724 35.66887474 C-1.09671062 33.81796193 -1.10029026 31.96704991 -1.10573006 30.11614418 C-1.13419227 20.02106857 -1.00909912 10.05473483 0 0 Z " fill="#862CEF" transform="translate(636,344)"/>
<path d="M0 0 C0.33 0 0.66 0 1 0 C1 15.18 1 30.36 1 46 C0.67 45.34 0.34 44.68 0 44 C-0.66 43.67 -1.32 43.34 -2 43 C-2.02887814 39.52085059 -2.04675687 36.04173169 -2.0625 32.5625 C-2.07087891 31.56927734 -2.07925781 30.57605469 -2.08789062 29.55273438 C-2.09111328 28.60849609 -2.09433594 27.66425781 -2.09765625 26.69140625 C-2.10289307 25.81685791 -2.10812988 24.94230957 -2.11352539 24.04125977 C-2 22 -2 22 -1 21 C-0.84313751 19.44051458 -0.74923361 17.87457332 -0.68359375 16.30859375 C-0.62075195 14.89223633 -0.62075195 14.89223633 -0.55664062 13.44726562 C-0.51732422 12.45404297 -0.47800781 11.46082031 -0.4375 10.4375 C-0.37272461 8.94186523 -0.37272461 8.94186523 -0.30664062 7.41601562 C-0.20019702 4.9441585 -0.09818072 2.4721969 0 0 Z " fill="#9131F8" transform="translate(637,399)"/>
<path d="M0 0 C0.33 0 0.66 0 1 0 C0.88660796 2.64680904 0.75987127 5.29177518 0.625 7.9375 C0.5940625 8.69224609 0.563125 9.44699219 0.53125 10.22460938 C0.4273685 12.15507395 0.22104386 14.07942081 0 16 C-0.66 16.33 -1.32 16.66 -2 17 C-2.2226746 15.56465159 -2.42761906 14.12654475 -2.625 12.6875 C-2.74101562 11.88699219 -2.85703125 11.08648437 -2.9765625 10.26171875 C-3 8 -3 8 -1 5 C-0.61500109 3.34450469 -0.27206865 1.6777567 0 0 Z " fill="#AB41FC" transform="translate(428,245)"/>
<path d="M0 0 C0.66 0.33 1.32 0.66 2 1 C0.68 1.99 -0.64 2.98 -2 4 C-2.66 3.67 -3.32 3.34 -4 3 C-2.68 2.01 -1.36 1.02 0 0 Z M-5 4 C-5 4.99 -5 5.98 -5 7 C-7.5 9.1875 -7.5 9.1875 -10 11 C-10.66 10.67 -11.32 10.34 -12 10 C-9.69 8.02 -7.38 6.04 -5 4 Z " fill="#B142FE" transform="translate(465,189)"/>
<path d="M0 0 C-3.00836106 2.00557404 -5.57148844 2.92859014 -9 4 C-9.99 4.33 -10.98 4.66 -12 5 C-12.99 4.67 -13.98 4.34 -15 4 C-13.06767179 3.13419713 -11.12892806 2.28270059 -9.1875 1.4375 C-8.10855469 0.96183594 -7.02960938 0.48617187 -5.91796875 -0.00390625 C-3 -1 -3 -1 0 0 Z " fill="#B142FE" transform="translate(490,179)"/>
<path d="M0 0 C0.33 0 0.66 0 1 0 C1.10477512 5.78591511 0.99250545 11.29309366 0 17 C-0.33 17 -0.66 17 -1 17 C-1.87890625 10.84765625 -1.87890625 10.84765625 -2 9 C-1.67 8.67 -1.34 8.34 -1 8 C-0.76924918 6.65252916 -0.58846937 5.29622435 -0.4375 3.9375 C-0.293125 2.638125 -0.14875 1.33875 0 0 Z " fill="#8F31F6" transform="translate(637,368)"/>
<path d="M0 0 C1.98 0 3.96 0 6 0 C4.35 1.65 2.7 3.3 1 5 C0.01 4.67 -0.98 4.34 -2 4 C-1.34 2.68 -0.68 1.36 0 0 Z " fill="#842FF3" transform="translate(1057,840)"/>
<path d="M0 0 C1.65 0 3.3 0 5 0 C5 0.33 5 0.66 5 1 C3.35 1 1.7 1 0 1 C0 0.67 0 0.34 0 0 Z " fill="#893AED" transform="translate(928,854)"/>
<path d="M0 0 C4 1 4 1 4 1 Z " fill="#893AED" transform="translate(867,854)"/>
<path d="M0 0 C3 1 3 1 3 1 Z " fill="#873AEA" transform="translate(973,854)"/>
<path d="M0 0 C0.66 0 1.32 0 2 0 C1.67 0.66 1.34 1.32 1 2 C0.67 1.34 0.34 0.68 0 0 Z " fill="#8A3BEC" transform="translate(944,854)"/>
<path d="M0 0 C3 1 3 1 3 1 Z " fill="#8B3BEE" transform="translate(687,854)"/>
<path d="M0 0 C3 1 3 1 3 1 Z " fill="#8B3DED" transform="translate(561,854)"/>
<path d="M0 0 C3 1 3 1 3 1 Z " fill="#883AEC" transform="translate(1025,853)"/>
<path d="M0 0 C3 1 3 1 3 1 Z " fill="#863CE6" transform="translate(1045,850)"/>
<path d="M0 0 C2 1 2 1 2 1 Z " fill="#883BEC" transform="translate(1011,854)"/>
<path d="M0 0 C2 1 2 1 2 1 Z " fill="#883BEC" transform="translate(992,854)"/>
<path d="M0 0 C2 1 2 1 2 1 Z " fill="#893BEC" transform="translate(979,854)"/>
<path d="M0 0 C2 1 2 1 2 1 Z " fill="#893BED" transform="translate(952,854)"/>
<path d="M0 0 C2 1 2 1 2 1 Z " fill="#893AED" transform="translate(941,854)"/>
<path d="M0 0 C2 1 2 1 2 1 Z " fill="#8A3AEE" transform="translate(907,854)"/>
<path d="M0 0 C2 1 2 1 2 1 Z " fill="#8839ED" transform="translate(901,854)"/>
<path d="M0 0 C2 1 2 1 2 1 Z " fill="#8A3AEF" transform="translate(888,854)"/>
<path d="M0 0 C2 1 2 1 2 1 Z " fill="#893BEF" transform="translate(864,854)"/>
<path d="M0 0 C2 1 2 1 2 1 Z " fill="#883AEE" transform="translate(776,854)"/>
<path d="M0 0 C2 1 2 1 2 1 Z " fill="#8B3AED" transform="translate(683,854)"/>
<path d="M0 0 C2 1 2 1 2 1 Z " fill="#8A3BEF" transform="translate(653,854)"/>
<path d="M0 0 C2 1 2 1 2 1 Z " fill="#8B3BEF" transform="translate(645,854)"/>
<path d="M0 0 C2 1 2 1 2 1 Z " fill="#8C3CEF" transform="translate(627,854)"/>
<path d="M0 0 C2 1 2 1 2 1 Z " fill="#8B3DEE" transform="translate(589,854)"/>
<path d="" fill="#9143EE" transform="translate(0,0)"/>
<path d="" fill="#9342EE" transform="translate(0,0)"/>
<path d="M0 0 C2 1 2 1 2 1 Z " fill="#A44BF2" transform="translate(510,170)"/>
<path d="" fill="#525451" transform="translate(0,0)"/>
<path d="" fill="#535352" transform="translate(0,0)"/>
<path d="" fill="#4F4A54" transform="translate(0,0)"/>
<path d="" fill="#594471" transform="translate(0,0)"/>
<path d="" fill="#5C4377" transform="translate(0,0)"/>
<path d="" fill="#5B407A" transform="translate(0,0)"/>
<path d="" fill="#5B476E" transform="translate(0,0)"/>
<path d="" fill="#525253" transform="translate(0,0)"/>
<path d="" fill="#545353" transform="translate(0,0)"/>
<path d="" fill="#504957" transform="translate(0,0)"/>
<path d="" fill="#5C4275" transform="translate(0,0)"/>
<path d="" fill="#505051" transform="translate(0,0)"/>
<path d="" fill="#525351" transform="translate(0,0)"/>
<path d="" fill="#52485F" transform="translate(0,0)"/>
<path d="" fill="#58476C" transform="translate(0,0)"/>
<path d="" fill="#4F524F" transform="translate(0,0)"/>
<path d="" fill="#525152" transform="translate(0,0)"/>
<path d="" fill="#5B4378" transform="translate(0,0)"/>
<path d="" fill="#5D4177" transform="translate(0,0)"/>
<path d="" fill="#5B486D" transform="translate(0,0)"/>
<path d="" fill="#525251" transform="translate(0,0)"/>
<path d="" fill="#535152" transform="translate(0,0)"/>
<path d="" fill="#4F4856" transform="translate(0,0)"/>
<path d="" fill="#514858" transform="translate(0,0)"/>
<path d="" fill="#52475D" transform="translate(0,0)"/>
<path d="" fill="#58446D" transform="translate(0,0)"/>
<path d="" fill="#5D4278" transform="translate(0,0)"/>
<path d="" fill="#5B456F" transform="translate(0,0)"/>
<path d="" fill="#514B58" transform="translate(0,0)"/>
<path d="" fill="#505050" transform="translate(0,0)"/>
<path d="" fill="#525353" transform="translate(0,0)"/>
<path d="" fill="#535351" transform="translate(0,0)"/>
<path d="" fill="#5B417A" transform="translate(0,0)"/>
<path d="" fill="#5D3E79" transform="translate(0,0)"/>
<path d="" fill="#5B486E" transform="translate(0,0)"/>
<path d="" fill="#515151" transform="translate(0,0)"/>
<path d="" fill="#514958" transform="translate(0,0)"/>
<path d="" fill="#50514F" transform="translate(0,0)"/>
<path d="" fill="#525351" transform="translate(0,0)"/>
<path d="" fill="#5D427A" transform="translate(0,0)"/>
<path d="" fill="#5C4470" transform="translate(0,0)"/>
<path d="" fill="#5C407C" transform="translate(0,0)"/>
<path d="" fill="#525251" transform="translate(0,0)"/>
<path d="" fill="#4F4953" transform="translate(0,0)"/>
<path d="" fill="#5C427B" transform="translate(0,0)"/>
<path d="" fill="#5E417A" transform="translate(0,0)"/>
<path d="" fill="#5E407A" transform="translate(0,0)"/>
<path d="" fill="#5C486E" transform="translate(0,0)"/>
<path d="" fill="#515251" transform="translate(0,0)"/>
<path d="" fill="#515351" transform="translate(0,0)"/>
<path d="" fill="#5A466F" transform="translate(0,0)"/>
<path d="" fill="#515252" transform="translate(0,0)"/>
<path d="" fill="#5C427D" transform="translate(0,0)"/>
<path d="" fill="#5F407D" transform="translate(0,0)"/>
<path d="" fill="#5C3F7B" transform="translate(0,0)"/>
<path d="" fill="#5D4671" transform="translate(0,0)"/>
<path d="" fill="#515152" transform="translate(0,0)"/>
<path d="" fill="#5C437C" transform="translate(0,0)"/>
<path d="" fill="#5E3F7D" transform="translate(0,0)"/>
<path d="" fill="#5B4671" transform="translate(0,0)"/>
<path d="" fill="#515351" transform="translate(0,0)"/>
<path d="" fill="#515150" transform="translate(0,0)"/>
<path d="" fill="#584568" transform="translate(0,0)"/>
<path d="" fill="#5C4479" transform="translate(0,0)"/>
<path d="" fill="#5D4180" transform="translate(0,0)"/>
<path d="" fill="#5F407F" transform="translate(0,0)"/>
<path d="" fill="#5E4674" transform="translate(0,0)"/>
<path d="" fill="#505150" transform="translate(0,0)"/>
<path d="" fill="#515151" transform="translate(0,0)"/>
<path d="" fill="#58456F" transform="translate(0,0)"/>
<path d="" fill="#5E437E" transform="translate(0,0)"/>
<path d="" fill="#5F4081" transform="translate(0,0)"/>
<path d="" fill="#59446D" transform="translate(0,0)"/>
<path d="" fill="#52534F" transform="translate(0,0)"/>
<path d="" fill="#534662" transform="translate(0,0)"/>
<path d="" fill="#5B427A" transform="translate(0,0)"/>
<path d="" fill="#50485A" transform="translate(0,0)"/>
<path d="" fill="#515151" transform="translate(0,0)"/>
<path d="" fill="#5F4282" transform="translate(0,0)"/>
<path d="" fill="#5F4775" transform="translate(0,0)"/>
<path d="" fill="#5E427C" transform="translate(0,0)"/>
<path d="" fill="#614185" transform="translate(0,0)"/>
<path d="" fill="#505150" transform="translate(0,0)"/>
<path d="" fill="#505250" transform="translate(0,0)"/>
<path d="" fill="#604380" transform="translate(0,0)"/>
<path d="" fill="#604085" transform="translate(0,0)"/>
<path d="" fill="#5F4879" transform="translate(0,0)"/>
<path d="" fill="#624287" transform="translate(0,0)"/>
<path d="" fill="#4D4D4F" transform="translate(0,0)"/>
<path d="" fill="#534464" transform="translate(0,0)"/>
<path d="" fill="#5F4180" transform="translate(0,0)"/>
<path d="" fill="#634187" transform="translate(0,0)"/>
<path d="" fill="#62457E" transform="translate(0,0)"/>
<path d="" fill="#4F5050" transform="translate(0,0)"/>
<path d="" fill="#62418A" transform="translate(0,0)"/>
<path d="" fill="#61487D" transform="translate(0,0)"/>
<path d="" fill="#4F5050" transform="translate(0,0)"/>
<path d="" fill="#4C4E4E" transform="translate(0,0)"/>
<path d="" fill="#51465D" transform="translate(0,0)"/>
<path d="" fill="#65418D" transform="translate(0,0)"/>
<path d="" fill="#634682" transform="translate(0,0)"/>
<path d="" fill="#52495D" transform="translate(0,0)"/>
<path d="" fill="#4D4E4E" transform="translate(0,0)"/>
<path d="" fill="#614484" transform="translate(0,0)"/>
<path d="" fill="#4E5050" transform="translate(0,0)"/>
<path d="" fill="#63418D" transform="translate(0,0)"/>
<path d="" fill="#65428D" transform="translate(0,0)"/>
<path d="" fill="#644881" transform="translate(0,0)"/>
<path d="" fill="#4E504F" transform="translate(0,0)"/>
<path d="" fill="#5A4576" transform="translate(0,0)"/>
<path d="" fill="#664191" transform="translate(0,0)"/>
<path d="" fill="#644687" transform="translate(0,0)"/>
<path d="" fill="#4E475B" transform="translate(0,0)"/>
<path d="" fill="#5C4675" transform="translate(0,0)"/>
<path d="" fill="#664193" transform="translate(0,0)"/>
<path d="" fill="#664886" transform="translate(0,0)"/>
<path d="" fill="#4E4F4E" transform="translate(0,0)"/>
<path d="" fill="#5E457E" transform="translate(0,0)"/>
<path d="" fill="#4E4D4B" transform="translate(0,0)"/>
<path d="" fill="#57446D" transform="translate(0,0)"/>
<path d="" fill="#64428C" transform="translate(0,0)"/>
<path d="" fill="#4E4D51" transform="translate(0,0)"/>
<path d="" fill="#50465B" transform="translate(0,0)"/>
<path d="" fill="#674199" transform="translate(0,0)"/>
<path d="" fill="#694097" transform="translate(0,0)"/>
<path d="" fill="#68478B" transform="translate(0,0)"/>
<path d="" fill="#4F4F4F" transform="translate(0,0)"/>
<path d="" fill="#504F50" transform="translate(0,0)"/>
<path d="" fill="#614485" transform="translate(0,0)"/>
<path d="" fill="#684397" transform="translate(0,0)"/>
<path d="" fill="#4F4D4C" transform="translate(0,0)"/>
<path d="" fill="#4F514E" transform="translate(0,0)"/>
<path d="" fill="#4C4A4B" transform="translate(0,0)"/>
<path d="" fill="#6B409C" transform="translate(0,0)"/>
<path d="" fill="#6D429A" transform="translate(0,0)"/>
<path d="" fill="#554763" transform="translate(0,0)"/>
<path d="" fill="#4D4D4E" transform="translate(0,0)"/>
<path d="" fill="#4F4F4F" transform="translate(0,0)"/>
<path d="" fill="#4F4F4E" transform="translate(0,0)"/>
<path d="" fill="#6B419F" transform="translate(0,0)"/>
<path d="" fill="#6C3F9E" transform="translate(0,0)"/>
<path d="" fill="#6A4890" transform="translate(0,0)"/>
<path d="" fill="#69478E" transform="translate(0,0)"/>
<path d="" fill="#4F4F4E" transform="translate(0,0)"/>
<path d="" fill="#4F4E4F" transform="translate(0,0)"/>
<path d="" fill="#4F4F4F" transform="translate(0,0)"/>
<path d="" fill="#4E4F4E" transform="translate(0,0)"/>
<path d="" fill="#51504F" transform="translate(0,0)"/>
<path d="" fill="#6B4991" transform="translate(0,0)"/>
<path d="" fill="#4D4F4F" transform="translate(0,0)"/>
<path d="" fill="#515050" transform="translate(0,0)"/>
<path d="" fill="#554668" transform="translate(0,0)"/>
<path d="" fill="#6A439B" transform="translate(0,0)"/>
<path d="" fill="#6E40A5" transform="translate(0,0)"/>
<path d="" fill="#6D4897" transform="translate(0,0)"/>
<path d="" fill="#4F4F4F" transform="translate(0,0)"/>
<path d="" fill="#7041AB" transform="translate(0,0)"/>
<path d="" fill="#5E457A" transform="translate(0,0)"/>
<path d="" fill="#7341B3" transform="translate(0,0)"/>
<path d="" fill="#7349A4" transform="translate(0,0)"/>
<path d="" fill="#4F4F4E" transform="translate(0,0)"/>
<path d="" fill="#4C4D4B" transform="translate(0,0)"/>
<path d="" fill="#554766" transform="translate(0,0)"/>
<path d="" fill="#7847AD" transform="translate(0,0)"/>
<path d="" fill="#4E4E4F" transform="translate(0,0)"/>
<path d="" fill="#4F4F4E" transform="translate(0,0)"/>
<path d="" fill="#7A44B7" transform="translate(0,0)"/>
<path d="" fill="#5B4774" transform="translate(0,0)"/>
<path d="" fill="#4E4F4E" transform="translate(0,0)"/>
<path d="" fill="#7743B7" transform="translate(0,0)"/>
<path d="" fill="#4F4F4E" transform="translate(0,0)"/>
<path d="" fill="#7B40C2" transform="translate(0,0)"/>
<path d="" fill="#7B48B5" transform="translate(0,0)"/>
<path d="" fill="#4E4F4E" transform="translate(0,0)"/>
<path d="" fill="#4F4D51" transform="translate(0,0)"/>
<path d="" fill="#4D4B4C" transform="translate(0,0)"/>
<path d="" fill="#634489" transform="translate(0,0)"/>
<path d="" fill="#5D4778" transform="translate(0,0)"/>
<path d="" fill="#4F4F4E" transform="translate(0,0)"/>
<path d="" fill="#7D40CC" transform="translate(0,0)"/>
<path d="" fill="#7E48BF" transform="translate(0,0)"/>
<path d="" fill="#4F4F4F" transform="translate(0,0)"/>
<path d="" fill="#4C4F4C" transform="translate(0,0)"/>
<path d="" fill="#4E4F4D" transform="translate(0,0)"/>
<path d="" fill="#67448E" transform="translate(0,0)"/>
<path d="" fill="#4D4E4D" transform="translate(0,0)"/>
<path d="" fill="#8347CA" transform="translate(0,0)"/>
<path d="" fill="#4E4D4D" transform="translate(0,0)"/>
<path d="" fill="#4E4E4F" transform="translate(0,0)"/>
<path d="" fill="#4F4E4F" transform="translate(0,0)"/>
<path d="" fill="#833CE4" transform="translate(0,0)"/>
<path d="" fill="#4D4D4E" transform="translate(0,0)"/>
<path d="" fill="#50504F" transform="translate(0,0)"/>
<path d="" fill="#873AED" transform="translate(0,0)"/>
<path d="" fill="#883AEC" transform="translate(0,0)"/>
<path d="" fill="#8A3AEE" transform="translate(0,0)"/>
<path d="" fill="#883AEC" transform="translate(0,0)"/>
<path d="" fill="#883BED" transform="translate(0,0)"/>
<path d="" fill="#8A3AEF" transform="translate(0,0)"/>
<path d="" fill="#883AEC" transform="translate(0,0)"/>
<path d="" fill="#893BEC" transform="translate(0,0)"/>
<path d="" fill="#883AED" transform="translate(0,0)"/>
<path d="" fill="#883AEE" transform="translate(0,0)"/>
<path d="" fill="#8A3BED" transform="translate(0,0)"/>
<path d="" fill="#8A3AEE" transform="translate(0,0)"/>
<path d="" fill="#893CF0" transform="translate(0,0)"/>
<path d="" fill="#883AEB" transform="translate(0,0)"/>
<path d="" fill="#8A39ED" transform="translate(0,0)"/>
<path d="" fill="#8939ED" transform="translate(0,0)"/>
<path d="" fill="#8A3AEE" transform="translate(0,0)"/>
<path d="" fill="#8A3BEE" transform="translate(0,0)"/>
<path d="" fill="#8A39EE" transform="translate(0,0)"/>
<path d="" fill="#8939EE" transform="translate(0,0)"/>
<path d="" fill="#8A39EE" transform="translate(0,0)"/>
<path d="" fill="#8A3AEF" transform="translate(0,0)"/>
<path d="" fill="#8939F0" transform="translate(0,0)"/>
<path d="" fill="#8A3BEF" transform="translate(0,0)"/>
<path d="" fill="#8B39EF" transform="translate(0,0)"/>
<path d="" fill="#8A39ED" transform="translate(0,0)"/>
<path d="" fill="#8A3BEE" transform="translate(0,0)"/>
<path d="" fill="#8A3AED" transform="translate(0,0)"/>
<path d="" fill="#8A3AEC" transform="translate(0,0)"/>
<path d="" fill="#8A39ED" transform="translate(0,0)"/>
<path d="" fill="#8839EE" transform="translate(0,0)"/>
<path d="" fill="#8B38F0" transform="translate(0,0)"/>
<path d="" fill="#8C3BF2" transform="translate(0,0)"/>
<path d="" fill="#8B3BF0" transform="translate(0,0)"/>
<path d="" fill="#8B3AEF" transform="translate(0,0)"/>
<path d="" fill="#8C3BEF" transform="translate(0,0)"/>
<path d="" fill="#8A39ED" transform="translate(0,0)"/>
<path d="" fill="#8C3AED" transform="translate(0,0)"/>
<path d="" fill="#8A3AED" transform="translate(0,0)"/>
<path d="" fill="#8B3CEE" transform="translate(0,0)"/>
<path d="" fill="#8A3AEE" transform="translate(0,0)"/>
<path d="" fill="#8B3AF0" transform="translate(0,0)"/>
<path d="" fill="#8B3BF0" transform="translate(0,0)"/>
<path d="" fill="#8C3BF1" transform="translate(0,0)"/>
<path d="" fill="#8A3FEF" transform="translate(0,0)"/>
<path d="" fill="#8D3EEF" transform="translate(0,0)"/>
<path d="" fill="#8C3BEE" transform="translate(0,0)"/>
<path d="" fill="#8C3CEF" transform="translate(0,0)"/>
<path d="" fill="#8C3BED" transform="translate(0,0)"/>
<path d="" fill="#8D3DED" transform="translate(0,0)"/>
<path d="" fill="#8A3CED" transform="translate(0,0)"/>
<path d="" fill="#8B3CEC" transform="translate(0,0)"/>
<path d="" fill="#8C3DEC" transform="translate(0,0)"/>
<path d="" fill="#8D40EB" transform="translate(0,0)"/>
<path d="" fill="#853DE7" transform="translate(0,0)"/>
<path d="" fill="#8D3CED" transform="translate(0,0)"/>
<path d="" fill="#8C41E6" transform="translate(0,0)"/>
<path d="" fill="#4F4E4F" transform="translate(0,0)"/>
<path d="" fill="#883CEB" transform="translate(0,0)"/>
<path d="" fill="#8C40ED" transform="translate(0,0)"/>
<path d="" fill="#8940EB" transform="translate(0,0)"/>
<path d="" fill="#883DE8" transform="translate(0,0)"/>
<path d="" fill="#873DEA" transform="translate(0,0)"/>
<path d="" fill="#8D42E7" transform="translate(0,0)"/>
<path d="" fill="#4E4F4E" transform="translate(0,0)"/>
<path d="" fill="#8A3CEC" transform="translate(0,0)"/>
<path d="" fill="#8E40ED" transform="translate(0,0)"/>
<path d="" fill="#873AEC" transform="translate(0,0)"/>
<path d="" fill="#8D3FE9" transform="translate(0,0)"/>
<path d="" fill="#4E4F4F" transform="translate(0,0)"/>
<path d="" fill="#4F504F" transform="translate(0,0)"/>
<path d="" fill="#4E4F4F" transform="translate(0,0)"/>
<path d="" fill="#4F504D" transform="translate(0,0)"/>
<path d="" fill="#9044EA" transform="translate(0,0)"/>
<path d="" fill="#4F4F50" transform="translate(0,0)"/>
<path d="" fill="#4F504F" transform="translate(0,0)"/>
<path d="" fill="#8A39EB" transform="translate(0,0)"/>
<path d="" fill="#8F43EA" transform="translate(0,0)"/>
<path d="" fill="#4F504E" transform="translate(0,0)"/>
<path d="" fill="#883AE8" transform="translate(0,0)"/>
<path d="" fill="#505150" transform="translate(0,0)"/>
<path d="" fill="#505050" transform="translate(0,0)"/>
<path d="" fill="#853BE6" transform="translate(0,0)"/>
<path d="" fill="#4F4F4F" transform="translate(0,0)"/>
<path d="" fill="#8839E8" transform="translate(0,0)"/>
<path d="" fill="#4E514F" transform="translate(0,0)"/>
<path d="" fill="#8D44E7" transform="translate(0,0)"/>
<path d="" fill="#51514F" transform="translate(0,0)"/>
<path d="" fill="#4F5051" transform="translate(0,0)"/>
<path d="" fill="#4F504F" transform="translate(0,0)"/>
<path d="" fill="#4F5050" transform="translate(0,0)"/>
<path d="" fill="#6B4692" transform="translate(0,0)"/>
<path d="" fill="#4F4E50" transform="translate(0,0)"/>
<path d="" fill="#8A3AEA" transform="translate(0,0)"/>
<path d="" fill="#4F504F" transform="translate(0,0)"/>
<path d="" fill="#505050" transform="translate(0,0)"/>
<path d="" fill="#505051" transform="translate(0,0)"/>
<path d="" fill="#505150" transform="translate(0,0)"/>
<path d="" fill="#4F514F" transform="translate(0,0)"/>
<path d="" fill="#4C4D4E" transform="translate(0,0)"/>
<path d="" fill="#4F5151" transform="translate(0,0)"/>
<path d="" fill="#505051" transform="translate(0,0)"/>
<path d="" fill="#515051" transform="translate(0,0)"/>
<path d="" fill="#504E50" transform="translate(0,0)"/>
<path d="" fill="#505051" transform="translate(0,0)"/>
<path d="" fill="#504F50" transform="translate(0,0)"/>
<path d="" fill="#505051" transform="translate(0,0)"/>
<path d="" fill="#515151" transform="translate(0,0)"/>
<path d="" fill="#9344EF" transform="translate(0,0)"/>
<path d="" fill="#505150" transform="translate(0,0)"/>
<path d="" fill="#515050" transform="translate(0,0)"/>
<path d="" fill="#4F5050" transform="translate(0,0)"/>
<path d="" fill="#4F4E51" transform="translate(0,0)"/>
<path d="" fill="#694988" transform="translate(0,0)"/>
<path d="" fill="#504F50" transform="translate(0,0)"/>
<path d="" fill="#4C4C4F" transform="translate(0,0)"/>
<path d="" fill="#505053" transform="translate(0,0)"/>
<path d="" fill="#505150" transform="translate(0,0)"/>
<path d="" fill="#545054" transform="translate(0,0)"/>
<path d="" fill="#51504F" transform="translate(0,0)"/>
<path d="" fill="#515050" transform="translate(0,0)"/>
<path d="" fill="#505250" transform="translate(0,0)"/>
<path d="" fill="#535255" transform="translate(0,0)"/>
<path d="" fill="#505150" transform="translate(0,0)"/>
<path d="" fill="#50514F" transform="translate(0,0)"/>
<path d="" fill="#505351" transform="translate(0,0)"/>
<path d="" fill="#515151" transform="translate(0,0)"/>
<path d="" fill="#515151" transform="translate(0,0)"/>
<path d="" fill="#505251" transform="translate(0,0)"/>
<path d="" fill="#505151" transform="translate(0,0)"/>
<path d="" fill="#505150" transform="translate(0,0)"/>
<path d="" fill="#545256" transform="translate(0,0)"/>
<path d="" fill="#525252" transform="translate(0,0)"/>
<path d="" fill="#515151" transform="translate(0,0)"/>
<path d="" fill="#674C8A" transform="translate(0,0)"/>
<path d="" fill="#505151" transform="translate(0,0)"/>
<path d="" fill="#515151" transform="translate(0,0)"/>
<path d="" fill="#50524F" transform="translate(0,0)"/>
<path d="" fill="#505250" transform="translate(0,0)"/>
<path d="" fill="#505050" transform="translate(0,0)"/>
<path d="" fill="#515250" transform="translate(0,0)"/>
<path d="" fill="#50524E" transform="translate(0,0)"/>
<path d="" fill="#515151" transform="translate(0,0)"/>
<path d="" fill="#505250" transform="translate(0,0)"/>
<path d="" fill="#515151" transform="translate(0,0)"/>
<path d="" fill="#515351" transform="translate(0,0)"/>
<path d="" fill="#525252" transform="translate(0,0)"/>
<path d="" fill="#51524F" transform="translate(0,0)"/>
<path d="" fill="#505350" transform="translate(0,0)"/>
<path d="" fill="#525252" transform="translate(0,0)"/>
<path d="" fill="#6A4C8A" transform="translate(0,0)"/>
<path d="" fill="#515252" transform="translate(0,0)"/>
<path d="" fill="#525252" transform="translate(0,0)"/>
<path d="" fill="#515351" transform="translate(0,0)"/>
<path d="" fill="#515151" transform="translate(0,0)"/>
<path d="" fill="#515251" transform="translate(0,0)"/>
<path d="" fill="#515252" transform="translate(0,0)"/>
<path d="" fill="#525152" transform="translate(0,0)"/>
<path d="" fill="#515351" transform="translate(0,0)"/>
<path d="" fill="#515251" transform="translate(0,0)"/>
<path d="" fill="#6A4C8D" transform="translate(0,0)"/>
<path d="" fill="#515251" transform="translate(0,0)"/>
<path d="" fill="#505350" transform="translate(0,0)"/>
<path d="" fill="#515253" transform="translate(0,0)"/>
<path d="" fill="#584E64" transform="translate(0,0)"/>
<path d="" fill="#525352" transform="translate(0,0)"/>
<path d="" fill="#565455" transform="translate(0,0)"/>
<path d="" fill="#535353" transform="translate(0,0)"/>
<path d="" fill="#525351" transform="translate(0,0)"/>
<path d="" fill="#865FA7" transform="translate(0,0)"/>
<path d="" fill="#525353" transform="translate(0,0)"/>
<path d="" fill="#535152" transform="translate(0,0)"/>
<path d="" fill="#555453" transform="translate(0,0)"/>
<path d="" fill="#525451" transform="translate(0,0)"/>
<path d="" fill="#525352" transform="translate(0,0)"/>
<path d="" fill="#535251" transform="translate(0,0)"/>
<path d="" fill="#525452" transform="translate(0,0)"/>
<path d="" fill="#545453" transform="translate(0,0)"/>
<path d="" fill="#525352" transform="translate(0,0)"/>
<path d="" fill="#525350" transform="translate(0,0)"/>
<path d="" fill="#525351" transform="translate(0,0)"/>
<path d="" fill="#525352" transform="translate(0,0)"/>
<path d="" fill="#535350" transform="translate(0,0)"/>
<path d="" fill="#525352" transform="translate(0,0)"/>
<path d="" fill="#525351" transform="translate(0,0)"/>
<path d="" fill="#545352" transform="translate(0,0)"/>
<path d="" fill="#535452" transform="translate(0,0)"/>
<path d="" fill="#744D9D" transform="translate(0,0)"/>
<path d="" fill="#9D41FC" transform="translate(0,0)"/>
<path d="" fill="#9F41FD" transform="translate(0,0)"/>
<path d="" fill="#535453" transform="translate(0,0)"/>
<path d="" fill="#535452" transform="translate(0,0)"/>
<path d="" fill="#535458" transform="translate(0,0)"/>
<path d="" fill="#535453" transform="translate(0,0)"/>
<path d="" fill="#525453" transform="translate(0,0)"/>
<path d="" fill="#525351" transform="translate(0,0)"/>
<path d="" fill="#A550F0" transform="translate(0,0)"/>
<path d="" fill="#535451" transform="translate(0,0)"/>
<path d="" fill="#545553" transform="translate(0,0)"/>
<path d="" fill="#525352" transform="translate(0,0)"/>
<path d="" fill="#545551" transform="translate(0,0)"/>
<path d="" fill="#535353" transform="translate(0,0)"/>
<path d="" fill="#545454" transform="translate(0,0)"/>
<path d="" fill="#535453" transform="translate(0,0)"/>
<path d="" fill="#A140FF" transform="translate(0,0)"/>
<path d="" fill="#A550F0" transform="translate(0,0)"/>
<path d="" fill="#545552" transform="translate(0,0)"/>
<path d="" fill="#555558" transform="translate(0,0)"/>
<path d="" fill="#545454" transform="translate(0,0)"/>
<path d="" fill="#A753F0" transform="translate(0,0)"/>
<path d="" fill="#535552" transform="translate(0,0)"/>
<path d="" fill="#4F4D4E" transform="translate(0,0)"/>
<path d="" fill="#555453" transform="translate(0,0)"/>
<path d="" fill="#575557" transform="translate(0,0)"/>
<path d="" fill="#535354" transform="translate(0,0)"/>
<path d="" fill="#545452" transform="translate(0,0)"/>
<path d="" fill="#4E504F" transform="translate(0,0)"/>
<path d="" fill="#9B3EFD" transform="translate(0,0)"/>
<path d="" fill="#50514F" transform="translate(0,0)"/>
<path d="" fill="#58565A" transform="translate(0,0)"/>
<path d="" fill="#545553" transform="translate(0,0)"/>
<path d="" fill="#545354" transform="translate(0,0)"/>
<path d="" fill="#854BC9" transform="translate(0,0)"/>
<path d="" fill="#545653" transform="translate(0,0)"/>
<path d="" fill="#5D4F69" transform="translate(0,0)"/>
<path d="" fill="#535453" transform="translate(0,0)"/>
<path d="" fill="#555355" transform="translate(0,0)"/>
<path d="" fill="#9841FC" transform="translate(0,0)"/>
<path d="" fill="#545653" transform="translate(0,0)"/>
<path d="" fill="#50514F" transform="translate(0,0)"/>
<path d="" fill="#854AC7" transform="translate(0,0)"/>
<path d="" fill="#545752" transform="translate(0,0)"/>
<path d="" fill="#545654" transform="translate(0,0)"/>
<path d="" fill="#555554" transform="translate(0,0)"/>
<path d="" fill="#525250" transform="translate(0,0)"/>
<path d="" fill="#535453" transform="translate(0,0)"/>
<path d="" fill="#555454" transform="translate(0,0)"/>
<path d="" fill="#545653" transform="translate(0,0)"/>
<path d="" fill="#545553" transform="translate(0,0)"/>
<path d="" fill="#535251" transform="translate(0,0)"/>
<path d="" fill="#545454" transform="translate(0,0)"/>
<path d="" fill="#555653" transform="translate(0,0)"/>
<path d="" fill="#545652" transform="translate(0,0)"/>
<path d="" fill="#545553" transform="translate(0,0)"/>
<path d="" fill="#545552" transform="translate(0,0)"/>
<path d="" fill="#525454" transform="translate(0,0)"/>
<path d="" fill="#555552" transform="translate(0,0)"/>
<path d="" fill="#565856" transform="translate(0,0)"/>
<path d="" fill="#555554" transform="translate(0,0)"/>
<path d="" fill="#545453" transform="translate(0,0)"/>
<path d="" fill="#AA53F0" transform="translate(0,0)"/>
<path d="" fill="#535652" transform="translate(0,0)"/>
<path d="" fill="#9E3DFB" transform="translate(0,0)"/>
<path d="" fill="#545654" transform="translate(0,0)"/>
<path d="" fill="#9C3AFF" transform="translate(0,0)"/>
<path d="" fill="#9C3AFC" transform="translate(0,0)"/>
<path d="" fill="#9B3DFB" transform="translate(0,0)"/>
<path d="" fill="#AA53F0" transform="translate(0,0)"/>
<path d="" fill="#555455" transform="translate(0,0)"/>
<path d="" fill="#525451" transform="translate(0,0)"/>
<path d="" fill="#555555" transform="translate(0,0)"/>
<path d="" fill="#555654" transform="translate(0,0)"/>
<path d="" fill="#50504F" transform="translate(0,0)"/>
<path d="" fill="#555553" transform="translate(0,0)"/>
<path d="" fill="#565753" transform="translate(0,0)"/>
<path d="" fill="#545554" transform="translate(0,0)"/>
<path d="" fill="#545556" transform="translate(0,0)"/>
<path d="" fill="#6B508A" transform="translate(0,0)"/>
<path d="" fill="#545554" transform="translate(0,0)"/>
<path d="" fill="#565555" transform="translate(0,0)"/>
<path d="" fill="#555552" transform="translate(0,0)"/>
<path d="" fill="#545554" transform="translate(0,0)"/>
<path d="" fill="#545553" transform="translate(0,0)"/>
<path d="" fill="#59575A" transform="translate(0,0)"/>
<path d="" fill="#545553" transform="translate(0,0)"/>
<path d="" fill="#545554" transform="translate(0,0)"/>
<path d="" fill="#A744FF" transform="translate(0,0)"/>
<path d="" fill="#A642FF" transform="translate(0,0)"/>
<path d="" fill="#555653" transform="translate(0,0)"/>
<path d="" fill="#8F45E4" transform="translate(0,0)"/>
<path d="" fill="#535554" transform="translate(0,0)"/>
<path d="" fill="#9F40FD" transform="translate(0,0)"/>
<path d="" fill="#545653" transform="translate(0,0)"/>
<path d="" fill="#555453" transform="translate(0,0)"/>
<path d="" fill="#555756" transform="translate(0,0)"/>
<path d="" fill="#545553" transform="translate(0,0)"/>
<path d="" fill="#6C4E8D" transform="translate(0,0)"/>
<path d="" fill="#545555" transform="translate(0,0)"/>
<path d="" fill="#555555" transform="translate(0,0)"/>
<path d="" fill="#565455" transform="translate(0,0)"/>
<path d="" fill="#9841F8" transform="translate(0,0)"/>
<path d="" fill="#9A40F9" transform="translate(0,0)"/>
<path d="" fill="#9B40FA" transform="translate(0,0)"/>
<path d="" fill="#9B41FA" transform="translate(0,0)"/>
<path d="" fill="#9B40F9" transform="translate(0,0)"/>
<path d="" fill="#9C40FB" transform="translate(0,0)"/>
<path d="" fill="#9B3EF9" transform="translate(0,0)"/>
<path d="" fill="#9B41F9" transform="translate(0,0)"/>
<path d="" fill="#9A41FA" transform="translate(0,0)"/>
<path d="" fill="#9C42FC" transform="translate(0,0)"/>
<path d="" fill="#9A43F9" transform="translate(0,0)"/>
<path d="" fill="#9B42F9" transform="translate(0,0)"/>
<path d="" fill="#9B42F9" transform="translate(0,0)"/>
<path d="" fill="#565554" transform="translate(0,0)"/>
<path d="" fill="#555554" transform="translate(0,0)"/>
<path d="" fill="#535553" transform="translate(0,0)"/>
<path d="" fill="#973FFB" transform="translate(0,0)"/>
<path d="" fill="#535453" transform="translate(0,0)"/>
<path d="" fill="#575455" transform="translate(0,0)"/>
<path d="" fill="#575658" transform="translate(0,0)"/>
<path d="" fill="#535454" transform="translate(0,0)"/>
<path d="" fill="#545553" transform="translate(0,0)"/>
<path d="" fill="#555655" transform="translate(0,0)"/>
<path d="" fill="#6D508C" transform="translate(0,0)"/>
<path d="" fill="#555554" transform="translate(0,0)"/>
<path d="" fill="#545553" transform="translate(0,0)"/>
<path d="" fill="#555659" transform="translate(0,0)"/>
<path d="" fill="#555554" transform="translate(0,0)"/>
<path d="" fill="#545454" transform="translate(0,0)"/>
<path d="" fill="#545654" transform="translate(0,0)"/>
<path d="" fill="#A743FF" transform="translate(0,0)"/>
<path d="" fill="#555554" transform="translate(0,0)"/>
<path d="" fill="#545555" transform="translate(0,0)"/>
<path d="" fill="#555655" transform="translate(0,0)"/>
<path d="" fill="#AE55F1" transform="translate(0,0)"/>
<path d="" fill="#555455" transform="translate(0,0)"/>
<path d="" fill="#9A3EFC" transform="translate(0,0)"/>
<path d="" fill="#535655" transform="translate(0,0)"/>
<path d="" fill="#555555" transform="translate(0,0)"/>
<path d="" fill="#515250" transform="translate(0,0)"/>
<path d="" fill="#6E4E8C" transform="translate(0,0)"/>
<path d="" fill="#555555" transform="translate(0,0)"/>
<path d="" fill="#555554" transform="translate(0,0)"/>
<path d="" fill="#555454" transform="translate(0,0)"/>
<path d="" fill="#555653" transform="translate(0,0)"/>
<path d="" fill="#50504D" transform="translate(0,0)"/>
<path d="" fill="#50504F" transform="translate(0,0)"/>
<path d="" fill="#545554" transform="translate(0,0)"/>
<path d="" fill="#6B508B" transform="translate(0,0)"/>
<path d="" fill="#545455" transform="translate(0,0)"/>
<path d="" fill="#555655" transform="translate(0,0)"/>
<path d="" fill="#545454" transform="translate(0,0)"/>
<path d="" fill="#555554" transform="translate(0,0)"/>
<path d="" fill="#545554" transform="translate(0,0)"/>
<path d="" fill="#4F4E4F" transform="translate(0,0)"/>
<path d="" fill="#545454" transform="translate(0,0)"/>
<path d="" fill="#555555" transform="translate(0,0)"/>
<path d="" fill="#555555" transform="translate(0,0)"/>
<path d="" fill="#6B4E8B" transform="translate(0,0)"/>
<path d="" fill="#545355" transform="translate(0,0)"/>
<path d="" fill="#545554" transform="translate(0,0)"/>
<path d="" fill="#6A5089" transform="translate(0,0)"/>
<path d="" fill="#834AC5" transform="translate(0,0)"/>
<path d="" fill="#545454" transform="translate(0,0)"/>
<path d="" fill="#545454" transform="translate(0,0)"/>
<path d="" fill="#6A4F88" transform="translate(0,0)"/>
<path d="" fill="#535355" transform="translate(0,0)"/>
<path d="" fill="#AD55F0" transform="translate(0,0)"/>
<path d="" fill="#545552" transform="translate(0,0)"/>
<path d="" fill="#535354" transform="translate(0,0)"/>
<path d="" fill="#AE55F1" transform="translate(0,0)"/>
<path d="" fill="#545454" transform="translate(0,0)"/>
<path d="" fill="#545555" transform="translate(0,0)"/>
<path d="" fill="#AE50F7" transform="translate(0,0)"/>
<path d="" fill="#535553" transform="translate(0,0)"/>
<path d="" fill="#AC4EF7" transform="translate(0,0)"/>
<path d="" fill="#545554" transform="translate(0,0)"/>
<path d="" fill="#525353" transform="translate(0,0)"/>
<path d="" fill="#AB50F7" transform="translate(0,0)"/>
<path d="" fill="#545454" transform="translate(0,0)"/>
<path d="" fill="#AB53F4" transform="translate(0,0)"/>
<path d="" fill="#545353" transform="translate(0,0)"/>
<path d="" fill="#535354" transform="translate(0,0)"/>
<path d="" fill="#535253" transform="translate(0,0)"/>
<path d="" fill="#545455" transform="translate(0,0)"/>
<path d="" fill="#535354" transform="translate(0,0)"/>
<path d="" fill="#A951F1" transform="translate(0,0)"/>
<path d="" fill="#654C80" transform="translate(0,0)"/>
<path d="" fill="#535353" transform="translate(0,0)"/>
<path d="" fill="#525552" transform="translate(0,0)"/>
<path d="" fill="#525152" transform="translate(0,0)"/>
<path d="" fill="#AC51EF" transform="translate(0,0)"/>
<path d="" fill="#535354" transform="translate(0,0)"/>
<path d="" fill="#624B7D" transform="translate(0,0)"/>
<path d="" fill="#525353" transform="translate(0,0)"/>
<path d="" fill="#545354" transform="translate(0,0)"/>
<path d="" fill="#A94DF0" transform="translate(0,0)"/>
<path d="" fill="#535452" transform="translate(0,0)"/>
<path d="" fill="#A84DF2" transform="translate(0,0)"/>
<path d="" fill="#8B3FEB" transform="translate(0,0)"/>
<path d="" fill="#535453" transform="translate(0,0)"/>
<path d="" fill="#AB52F0" transform="translate(0,0)"/>
<path d="" fill="#525353" transform="translate(0,0)"/>
<path d="" fill="#8D3CEC" transform="translate(0,0)"/>
<path d="" fill="#8C3DE6" transform="translate(0,0)"/>
<path d="" fill="#8D3DEB" transform="translate(0,0)"/>
<path d="" fill="#535352" transform="translate(0,0)"/>
<path d="" fill="#535452" transform="translate(0,0)"/>
<path d="" fill="#535353" transform="translate(0,0)"/>
<path d="" fill="#525451" transform="translate(0,0)"/>
<path d="" fill="#7447AA" transform="translate(0,0)"/>
<path d="" fill="#515351" transform="translate(0,0)"/>
<path d="" fill="#535353" transform="translate(0,0)"/>
<path d="" fill="#5E4878" transform="translate(0,0)"/>
<path d="" fill="#525353" transform="translate(0,0)"/>
<path d="" fill="#4E4F4D" transform="translate(0,0)"/>
<path d="" fill="#525252" transform="translate(0,0)"/>
<path d="" fill="#535452" transform="translate(0,0)"/>
<path d="" fill="#913DF0" transform="translate(0,0)"/>
<path d="" fill="#535452" transform="translate(0,0)"/>
<path d="" fill="#8E3DEC" transform="translate(0,0)"/>
<path d="" fill="#525454" transform="translate(0,0)"/>
<path d="" fill="#8D3DEB" transform="translate(0,0)"/>
<path d="" fill="#8F3EEB" transform="translate(0,0)"/>
<path d="" fill="#8B3BEE" transform="translate(0,0)"/>
<path d="" fill="#515254" transform="translate(0,0)"/>
<path d="" fill="#535353" transform="translate(0,0)"/>
<path d="" fill="#8C3FE9" transform="translate(0,0)"/>
<path d="" fill="#9040EC" transform="translate(0,0)"/>
<path d="" fill="#8D3EEC" transform="translate(0,0)"/>
<path d="" fill="#8D42E4" transform="translate(0,0)"/>
<path d="" fill="#545453" transform="translate(0,0)"/>
<path d="" fill="#A256E0" transform="translate(0,0)"/>
<path d="" fill="#525252" transform="translate(0,0)"/>
<path d="" fill="#535453" transform="translate(0,0)"/>
<path d="" fill="#525154" transform="translate(0,0)"/>
<path d="" fill="#545454" transform="translate(0,0)"/>
<path d="" fill="#535353" transform="translate(0,0)"/>
<path d="" fill="#9D58D3" transform="translate(0,0)"/>
<path d="" fill="#535253" transform="translate(0,0)"/>
<path d="" fill="#6A4691" transform="translate(0,0)"/>
<path d="" fill="#535354" transform="translate(0,0)"/>
<path d="" fill="#9759C8" transform="translate(0,0)"/>
<path d="" fill="#535353" transform="translate(0,0)"/>
<path d="" fill="#515052" transform="translate(0,0)"/>
<path d="" fill="#545353" transform="translate(0,0)"/>
<path d="" fill="#535353" transform="translate(0,0)"/>
<path d="" fill="#514759" transform="translate(0,0)"/>
<path d="" fill="#6D4597" transform="translate(0,0)"/>
<path d="" fill="#9159BE" transform="translate(0,0)"/>
<path d="" fill="#535353" transform="translate(0,0)"/>
<path d="" fill="#525453" transform="translate(0,0)"/>
<path d="" fill="#535452" transform="translate(0,0)"/>
<path d="" fill="#644584" transform="translate(0,0)"/>
<path d="" fill="#8646C5" transform="translate(0,0)"/>
<path d="" fill="#545453" transform="translate(0,0)"/>
<path d="" fill="#8C59B4" transform="translate(0,0)"/>
<path d="" fill="#525354" transform="translate(0,0)"/>
<path d="" fill="#515152" transform="translate(0,0)"/>
<path d="" fill="#545353" transform="translate(0,0)"/>
<path d="" fill="#554664" transform="translate(0,0)"/>
<path d="" fill="#7D46B8" transform="translate(0,0)"/>
<path d="" fill="#8857AC" transform="translate(0,0)"/>
<path d="" fill="#545355" transform="translate(0,0)"/>
<path d="" fill="#5C4674" transform="translate(0,0)"/>
<path d="" fill="#545252" transform="translate(0,0)"/>
<path d="" fill="#6C4393" transform="translate(0,0)"/>
<path d="" fill="#8358A5" transform="translate(0,0)"/>
<path d="" fill="#525353" transform="translate(0,0)"/>
<path d="" fill="#535352" transform="translate(0,0)"/>
<path d="" fill="#624481" transform="translate(0,0)"/>
<path d="" fill="#7F579D" transform="translate(0,0)"/>
<path d="" fill="#7245A1" transform="translate(0,0)"/>
<path d="" fill="#545453" transform="translate(0,0)"/>
<path d="" fill="#52445D" transform="translate(0,0)"/>
<path d="" fill="#7244A1" transform="translate(0,0)"/>
<path d="" fill="#535353" transform="translate(0,0)"/>
<path d="" fill="#544563" transform="translate(0,0)"/>
<path d="" fill="#6E449A" transform="translate(0,0)"/>
<path d="" fill="#535551" transform="translate(0,0)"/>
<path d="" fill="#58436D" transform="translate(0,0)"/>
<path d="" fill="#545454" transform="translate(0,0)"/>
<path d="" fill="#70439B" transform="translate(0,0)"/>
<path d="" fill="#765493" transform="translate(0,0)"/>
<path d="" fill="#535553" transform="translate(0,0)"/>
<path d="" fill="#534360" transform="translate(0,0)"/>
<path d="" fill="#674289" transform="translate(0,0)"/>
<path d="" fill="#6E4298" transform="translate(0,0)"/>
<path d="" fill="#545454" transform="translate(0,0)"/>
<path d="" fill="#4F4658" transform="translate(0,0)"/>
<path d="" fill="#6C4296" transform="translate(0,0)"/>
<path d="" fill="#72538C" transform="translate(0,0)"/>
<path d="" fill="#545251" transform="translate(0,0)"/>
<path d="" fill="#535453" transform="translate(0,0)"/>
<path d="" fill="#6F4296" transform="translate(0,0)"/>
<path d="" fill="#525152" transform="translate(0,0)"/>
<path d="" fill="#4F4558" transform="translate(0,0)"/>
<path d="" fill="#634284" transform="translate(0,0)"/>
<path d="" fill="#694191" transform="translate(0,0)"/>
<path d="" fill="#6F5287" transform="translate(0,0)"/>
<path d="" fill="#535354" transform="translate(0,0)"/>
<path d="" fill="#634281" transform="translate(0,0)"/>
<path d="" fill="#654288" transform="translate(0,0)"/>
<path d="" fill="#535153" transform="translate(0,0)"/>
<path d="" fill="#554164" transform="translate(0,0)"/>
<path d="" fill="#69418D" transform="translate(0,0)"/>
<path d="" fill="#4F5453" transform="translate(0,0)"/>
<path d="" fill="#52455C" transform="translate(0,0)"/>
<path d="" fill="#67418A" transform="translate(0,0)"/>
<path d="" fill="#6C5182" transform="translate(0,0)"/>
<path d="" fill="#545353" transform="translate(0,0)"/>
<path d="" fill="#634081" transform="translate(0,0)"/>
<path d="" fill="#545553" transform="translate(0,0)"/>
<path d="" fill="#4F4E4F" transform="translate(0,0)"/>
<path d="" fill="#555453" transform="translate(0,0)"/>
<path d="" fill="#5F427A" transform="translate(0,0)"/>
<path d="" fill="#545554" transform="translate(0,0)"/>
<path d="" fill="#525150" transform="translate(0,0)"/>
<path d="" fill="#4E4555" transform="translate(0,0)"/>
<path d="" fill="#654284" transform="translate(0,0)"/>
<path d="" fill="#6A517F" transform="translate(0,0)"/>
<path d="" fill="#545454" transform="translate(0,0)"/>
<path d="" fill="#555554" transform="translate(0,0)"/>
<path d="" fill="#674287" transform="translate(0,0)"/>
<path d="" fill="#50514F" transform="translate(0,0)"/>
<path d="" fill="#555553" transform="translate(0,0)"/>
<path d="" fill="#654083" transform="translate(0,0)"/>
<path d="" fill="#4F4558" transform="translate(0,0)"/>
<path d="" fill="#545554" transform="translate(0,0)"/>
<path d="" fill="#624080" transform="translate(0,0)"/>
<path d="" fill="#69517C" transform="translate(0,0)"/>
<path d="" fill="#545353" transform="translate(0,0)"/>
<path d="" fill="#4D4652" transform="translate(0,0)"/>
<path d="" fill="#51425C" transform="translate(0,0)"/>
<path d="" fill="#5D4074" transform="translate(0,0)"/>
<path d="" fill="#545553" transform="translate(0,0)"/>
<path d="" fill="#5C3F73" transform="translate(0,0)"/>
<path d="" fill="#4F4457" transform="translate(0,0)"/>
<path d="" fill="#525453" transform="translate(0,0)"/>
<path d="" fill="#545555" transform="translate(0,0)"/>
<path d="" fill="#555554" transform="translate(0,0)"/>
<path d="" fill="#4C4553" transform="translate(0,0)"/>
<path d="" fill="#4F4356" transform="translate(0,0)"/>
<path d="" fill="#5A3F71" transform="translate(0,0)"/>
<path d="" fill="#613F7D" transform="translate(0,0)"/>
<path d="" fill="#623F80" transform="translate(0,0)"/>
<path d="" fill="#68517A" transform="translate(0,0)"/>
<path d="" fill="#555555" transform="translate(0,0)"/>
<path d="" fill="#4D4653" transform="translate(0,0)"/>
<path d="" fill="#4F4356" transform="translate(0,0)"/>
<path d="" fill="#545353" transform="translate(0,0)"/>
<path d="" fill="#555555" transform="translate(0,0)"/>
<path d="" fill="#555654" transform="translate(0,0)"/>
<path d="" fill="#4F4557" transform="translate(0,0)"/>
<path d="" fill="#5F4077" transform="translate(0,0)"/>
<path d="" fill="#613F7C" transform="translate(0,0)"/>
<path d="" fill="#67447D" transform="translate(0,0)"/>
<path d="" fill="#684A7F" transform="translate(0,0)"/>
<path d="" fill="#645076" transform="translate(0,0)"/>
<path d="" fill="#51425F" transform="translate(0,0)"/>
<path d="" fill="#555454" transform="translate(0,0)"/>
<path d="" fill="#553F63" transform="translate(0,0)"/>
<path d="" fill="#5F407A" transform="translate(0,0)"/>
<path d="" fill="#664F75" transform="translate(0,0)"/>
<path d="" fill="#545555" transform="translate(0,0)"/>
<path d="" fill="#565556" transform="translate(0,0)"/>
<path d="" fill="#4E4356" transform="translate(0,0)"/>
<path d="" fill="#553E66" transform="translate(0,0)"/>
<path d="" fill="#555158" transform="translate(0,0)"/>
<path d="" fill="#555655" transform="translate(0,0)"/>
<path d="" fill="#4F504F" transform="translate(0,0)"/>
<path d="" fill="#4F415A" transform="translate(0,0)"/>
<path d="" fill="#593F6F" transform="translate(0,0)"/>
<path d="" fill="#664F77" transform="translate(0,0)"/>
<path d="" fill="#59416D" transform="translate(0,0)"/>
<path d="" fill="#565654" transform="translate(0,0)"/>
<path d="" fill="#4D494E" transform="translate(0,0)"/>
<path d="" fill="#59416E" transform="translate(0,0)"/>
<path d="" fill="#5E4075" transform="translate(0,0)"/>
<path d="" fill="#603E79" transform="translate(0,0)"/>
<path d="" fill="#645174" transform="translate(0,0)"/>
<path d="" fill="#555555" transform="translate(0,0)"/>
<path d="" fill="#4E4356" transform="translate(0,0)"/>
<path d="" fill="#543E65" transform="translate(0,0)"/>
<path d="" fill="#545352" transform="translate(0,0)"/>
<path d="" fill="#555654" transform="translate(0,0)"/>
<path d="" fill="#505051" transform="translate(0,0)"/>
<path d="" fill="#4F415A" transform="translate(0,0)"/>
<path d="" fill="#593F6C" transform="translate(0,0)"/>
<path d="" fill="#5E4076" transform="translate(0,0)"/>
<path d="" fill="#654F75" transform="translate(0,0)"/>
<path d="" fill="#635072" transform="translate(0,0)"/>
<path d="" fill="#58416A" transform="translate(0,0)"/>
<path d="" fill="#555654" transform="translate(0,0)"/>
<path d="" fill="#57406B" transform="translate(0,0)"/>
<path d="" fill="#5D3F75" transform="translate(0,0)"/>
<path d="" fill="#5E3E79" transform="translate(0,0)"/>
<path d="" fill="#635072" transform="translate(0,0)"/>
<path d="" fill="#545556" transform="translate(0,0)"/>
<path d="" fill="#5A3F70" transform="translate(0,0)"/>
<path d="" fill="#5F3E78" transform="translate(0,0)"/>
<path d="" fill="#545455" transform="translate(0,0)"/>
<path d="" fill="#504059" transform="translate(0,0)"/>
<path d="" fill="#654979" transform="translate(0,0)"/>
<path d="" fill="#58426A" transform="translate(0,0)"/>
<path d="" fill="#565654" transform="translate(0,0)"/>
<path d="" fill="#5C4074" transform="translate(0,0)"/>
<path d="" fill="#635072" transform="translate(0,0)"/>
<path d="" fill="#555655" transform="translate(0,0)"/>
<path d="" fill="#543F62" transform="translate(0,0)"/>
<path d="" fill="#555259" transform="translate(0,0)"/>
<path d="" fill="#535254" transform="translate(0,0)"/>
<path d="" fill="#545555" transform="translate(0,0)"/>
<path d="" fill="#565754" transform="translate(0,0)"/>
<path d="" fill="#50425A" transform="translate(0,0)"/>
<path d="" fill="#52415D" transform="translate(0,0)"/>
<path d="" fill="#544062" transform="translate(0,0)"/>
<path d="" fill="#573F6A" transform="translate(0,0)"/>
<path d="" fill="#655071" transform="translate(0,0)"/>
<path d="" fill="#605070" transform="translate(0,0)"/>
<path d="" fill="#555455" transform="translate(0,0)"/>
<path d="" fill="#553F68" transform="translate(0,0)"/>
<path d="" fill="#5C4073" transform="translate(0,0)"/>
<path d="" fill="#5D3E76" transform="translate(0,0)"/>
<path d="" fill="#62506F" transform="translate(0,0)"/>
<path d="" fill="#555556" transform="translate(0,0)"/>
<path d="" fill="#504657" transform="translate(0,0)"/>
<path d="" fill="#5A406E" transform="translate(0,0)"/>
<path d="" fill="#534162" transform="translate(0,0)"/>
<path d="" fill="#4F4C4F" transform="translate(0,0)"/>
<path d="" fill="#504459" transform="translate(0,0)"/>
<path d="" fill="#5F3F73" transform="translate(0,0)"/>
<path d="" fill="#624175" transform="translate(0,0)"/>
<path d="" fill="#654E71" transform="translate(0,0)"/>
<path d="" fill="#525454" transform="translate(0,0)"/>
<path d="" fill="#555555" transform="translate(0,0)"/>
<path d="" fill="#565655" transform="translate(0,0)"/>
<path d="" fill="#614F70" transform="translate(0,0)"/>
</svg>
